<?xml version="1.0" encoding="UTF-8" standalone="no"?>
<!-- Created with Inkscape (http://www.inkscape.org/) -->

<svg
   width="280.67648"
   height="86.52803"
   viewBox="0 0 74.262319 22.893875"
   version="1.1"
   id="svg1"
   xmlns:inkscape="http://www.inkscape.org/namespaces/inkscape"
   xmlns:sodipodi="http://sodipodi.sourceforge.net/DTD/sodipodi-0.dtd"
   xmlns="http://www.w3.org/2000/svg"
   xmlns:svg="http://www.w3.org/2000/svg">
  <sodipodi:namedview
     id="namedview1"
     pagecolor="#ffffff"
     bordercolor="#000000"
     borderopacity="0.25"
     inkscape:showpageshadow="2"
     inkscape:pageopacity="0.0"
     inkscape:pagecheckerboard="0"
     inkscape:deskcolor="#d1d1d1"
     inkscape:document-units="mm">
    <inkscape:page
       x="0"
       y="0"
       width="74.262321"
       height="22.893875"
       id="page2"
       margin="0"
       bleed="0" />
  </sodipodi:namedview>
  <defs
     id="defs1" />
  <g
     inkscape:label="Layer 1"
     inkscape:groupmode="layer"
     id="layer1"
     transform="translate(-0.23879304,-0.33850381)">
    <g
       id="g1">
      <path
         d="m 8.4075438,1.4978262 c -0.0247,0 -0.0529,-0.007 -0.0776,-0.0106 -0.0423,-0.007 -0.0882,-0.0212 -0.13053,-0.0353 -0.41628,-0.13758 -0.79022,-0.55033 -1.07245,-1.13594 l -0.004,7e-4 c -0.3563,0.72673 -0.7784,1.18578 -1.38641,1.18534 -0.60879,-4.5e-4 -1.03364,-0.45861 -1.38642,-1.18886 l -3.5e-4,-3.6e-4 c -0.35631,0.72673 -0.84667,1.17758 -1.38642,1.17758 -0.54328,0 -1.03364,-0.45861 -1.38642,-1.18886 -0.28222,0.58561 -0.65616003,0.99836 -1.07244003,1.13594 -0.0423,0.0141 -0.0882,0.0282 -0.13053,0.0353 -0.0247,0.004 -0.0529,0.0106 -0.0776,0.0106"
         style="fill:none;stroke:#154280;stroke-width:0.264583;stroke-linecap:round;stroke-linejoin:round;stroke-miterlimit:10;stroke-dasharray:none;stroke-opacity:1"
         id="path1"
         inkscape:export-filename="wave.svg"
         inkscape:export-xdpi="96"
         inkscape:export-ydpi="96" />
      <path
         d="m 16.625497,1.5203052 c -0.0247,0 -0.0529,-0.007 -0.0776,-0.0106 -0.0423,-0.007 -0.0882,-0.0212 -0.13053,-0.0353 -0.41628,-0.13758 -0.79022,-0.55033003 -1.07245,-1.13594003 l -0.004,7e-4 c -0.3563,0.72673003 -0.7784,1.18578003 -1.38641,1.18534003 -0.60879,-4.5e-4 -1.03364,-0.45861 -1.38642,-1.18886003 l -3.5e-4,-3.6e-4 c -0.35631,0.72673003 -0.84667,1.17758003 -1.38642,1.17758003 -0.54328,0 -1.03364,-0.45861 -1.3864201,-1.18886003 -0.28222,0.58561 -0.65616,0.99836003 -1.07244,1.13594003 -0.0423,0.0141 -0.0882,0.0282 -0.13053,0.0353 -0.0247,0.004 -0.0529,0.0106 -0.0776,0.0106"
         style="fill:none;stroke:#154280;stroke-width:0.264583;stroke-linecap:round;stroke-linejoin:round;stroke-miterlimit:10;stroke-dasharray:none;stroke-opacity:1"
         id="path1-5"
         inkscape:export-filename="wave.svg"
         inkscape:export-xdpi="96"
         inkscape:export-ydpi="96" />
      <path
         d="m 24.830529,1.5469641 c -0.0247,0 -0.0529,-0.007 -0.0776,-0.0106 -0.0423,-0.007 -0.0882,-0.0212 -0.13053,-0.0353 -0.41628,-0.13758 -0.79022,-0.55032997 -1.07245,-1.13593997 l -0.004,7e-4 c -0.3563,0.72672997 -0.7784,1.18577997 -1.38641,1.18533997 -0.60879,-4.5e-4 -1.03364,-0.45861 -1.38642,-1.18885997 l -3.5e-4,-3.6e-4 c -0.35631,0.72672997 -0.84667,1.17757997 -1.38642,1.17757997 -0.54328,0 -1.03364,-0.45861 -1.38642,-1.18885997 -0.28222,0.58561 -0.65616,0.99835997 -1.07244,1.13593997 -0.0423,0.0141 -0.0882,0.0282 -0.13053,0.0353 -0.0247,0.004 -0.0529,0.0106 -0.0776,0.0106"
         style="fill:none;stroke:#154280;stroke-width:0.264583;stroke-linecap:round;stroke-linejoin:round;stroke-miterlimit:10;stroke-dasharray:none;stroke-opacity:1"
         id="path1-52"
         inkscape:export-filename="wave.svg"
         inkscape:export-xdpi="96"
         inkscape:export-ydpi="96" />
      <path
         d="m 33.050431,1.570671 c -0.0247,0 -0.0529,-0.007 -0.0776,-0.0106 -0.0423,-0.007 -0.0882,-0.0212 -0.13053,-0.0353 -0.41628,-0.13758 -0.79022,-0.55032997 -1.07245,-1.13593997 l -0.004,7e-4 c -0.3563,0.72672997 -0.7784,1.18577997 -1.38641,1.18533997 -0.60879,-4.5e-4 -1.03364,-0.45861 -1.38642,-1.18885997 l -3.5e-4,-3.6e-4 C 28.636361,1.112381 28.146001,1.563231 27.606251,1.563231 c -0.54328,0 -1.03364,-0.45861 -1.38642,-1.18885997 -0.28222,0.58561 -0.65616,0.99835997 -1.07244,1.13593997 -0.0423,0.0141 -0.0882,0.0282 -0.13053,0.0353 -0.0247,0.004 -0.0529,0.0106 -0.0776,0.0106"
         style="fill:none;stroke:#154280;stroke-width:0.264583;stroke-linecap:round;stroke-linejoin:round;stroke-miterlimit:10;stroke-dasharray:none;stroke-opacity:1"
         id="path1-2"
         inkscape:export-filename="wave.svg"
         inkscape:export-xdpi="96"
         inkscape:export-ydpi="96" />
      <path
         d="m 41.272414,1.5782793 c -0.0247,0 -0.0529,-0.007 -0.0776,-0.0106 -0.0423,-0.007 -0.0882,-0.0212 -0.13053,-0.0353 -0.41628,-0.13758 -0.79022,-0.55033 -1.07245,-1.13594 l -0.004,7e-4 c -0.3563,0.72673 -0.7784,1.18578 -1.38641,1.18534 -0.60879,-4.5e-4 -1.03364,-0.45861 -1.38642,-1.18886 l -3.5e-4,-3.6e-4 c -0.35631,0.72673 -0.84667,1.17758 -1.38642,1.17758 -0.54328,0 -1.03364,-0.45861 -1.38642,-1.18886 -0.28222,0.58561 -0.65616,0.99836 -1.07244,1.13594 -0.0423,0.0141 -0.0882,0.0282 -0.13053,0.0353 -0.0247,0.004 -0.0529,0.0106 -0.0776,0.0106"
         style="fill:none;stroke:#154280;stroke-width:0.264583;stroke-linecap:round;stroke-linejoin:round;stroke-miterlimit:10;stroke-dasharray:none;stroke-opacity:1"
         id="path1-6"
         inkscape:export-filename="wave.svg"
         inkscape:export-xdpi="96"
         inkscape:export-ydpi="96" />
      <path
         d="m 49.499926,1.5841734 c -0.0247,0 -0.0529,-0.007 -0.0776,-0.0106 -0.0423,-0.007 -0.0882,-0.0212 -0.13053,-0.0353 -0.41628,-0.13758 -0.79022,-0.55032999 -1.07245,-1.13593996 l -0.004,7e-4 c -0.3563,0.72672996 -0.7784,1.18577996 -1.38641,1.18533996 -0.60879,-4.5e-4 -1.03364,-0.45861 -1.38642,-1.18885996 l -3.5e-4,-3.6e-4 c -0.35631,0.72672996 -0.84667,1.17757996 -1.38642,1.17757996 -0.54328,0 -1.03364,-0.45861 -1.38642,-1.18885996 -0.28222,0.58561 -0.65616,0.99835996 -1.07244,1.13593996 -0.0423,0.0141 -0.0882,0.0282 -0.13053,0.0353 -0.0247,0.004 -0.0529,0.0106 -0.0776,0.0106"
         style="fill:none;stroke:#154280;stroke-width:0.264583;stroke-linecap:round;stroke-linejoin:round;stroke-miterlimit:10;stroke-dasharray:none;stroke-opacity:1"
         id="path1-1"
         inkscape:export-filename="wave.svg"
         inkscape:export-xdpi="96"
         inkscape:export-ydpi="96" />
      <path
         d="m 57.669918,1.5860762 c -0.0247,0 -0.0529,-0.007 -0.0776,-0.0106 -0.0423,-0.007 -0.0882,-0.0212 -0.13053,-0.0353 -0.41628,-0.13758 -0.79022,-0.55032996 -1.07245,-1.13593991 l -0.004,7e-4 c -0.3563,0.72672991 -0.7784,1.18577991 -1.38641,1.18533991 -0.60879,-4.5e-4 -1.03364,-0.45861 -1.38642,-1.18885991 l -3.5e-4,-3.6e-4 c -0.35631,0.72672991 -0.84667,1.17757991 -1.38642,1.17757991 -0.54328,0 -1.03364,-0.45861 -1.38642,-1.18885991 -0.28222,0.58560995 -0.65616,0.99835991 -1.07244,1.13593991 -0.0423,0.0141 -0.0882,0.0282 -0.13053,0.0353 -0.0247,0.004 -0.0529,0.0106 -0.0776,0.0106"
         style="fill:none;stroke:#154280;stroke-width:0.264583;stroke-linecap:round;stroke-linejoin:round;stroke-miterlimit:10;stroke-dasharray:none;stroke-opacity:1"
         id="path1-1-7"
         inkscape:export-filename="wave.svg"
         inkscape:export-xdpi="96"
         inkscape:export-ydpi="96" />
      <path
         d="m 65.864222,1.5986173 c -0.0247,0 -0.0529,-0.007 -0.0776,-0.0106 -0.0423,-0.007 -0.0882,-0.0212 -0.13053,-0.0353 -0.41628,-0.13758 -0.79022,-0.55033 -1.07245,-1.13594001 l -0.004,7e-4 c -0.3563,0.72673001 -0.7784,1.18578001 -1.38641,1.18534001 -0.60879,-4.5e-4 -1.03364,-0.45861 -1.38642,-1.18886001 l -3.5e-4,-3.6e-4 c -0.35631,0.72673001 -0.84667,1.17758001 -1.38642,1.17758001 -0.54328,0 -1.03364,-0.45861 -1.38642,-1.18886001 -0.28222,0.58561 -0.65616,0.99836001 -1.07244,1.13594001 -0.0423,0.0141 -0.0882,0.0282 -0.13053,0.0353 -0.0247,0.004 -0.0529,0.0106 -0.0776,0.0106"
         style="fill:none;stroke:#154280;stroke-width:0.264583;stroke-linecap:round;stroke-linejoin:round;stroke-miterlimit:10;stroke-dasharray:none;stroke-opacity:1"
         id="path1-1-9"
         inkscape:export-filename="wave.svg"
         inkscape:export-xdpi="96"
         inkscape:export-ydpi="96" />
      <path
         d="m 74.059983,1.6142783 c -0.0247,0 -0.0529,-0.007 -0.0776,-0.0106 -0.0423,-0.007 -0.0882,-0.0212 -0.13053,-0.0353 -0.41628,-0.13758 -0.79022,-0.55033 -1.07245,-1.13594002 l -0.004,7e-4 c -0.3563,0.72673002 -0.7784,1.18578002 -1.38641,1.18534002 -0.60879,-4.5e-4 -1.03364,-0.45861 -1.38642,-1.18886002 l -3.5e-4,-3.6e-4 c -0.35631,0.72673002 -0.84667,1.17758002 -1.38642,1.17758002 -0.54328,0 -1.03364,-0.45861 -1.38642,-1.18886002 -0.28222,0.58561002 -0.65616,0.99836002 -1.07244,1.13594002 -0.0423,0.0141 -0.0882,0.0282 -0.13053,0.0353 -0.0247,0.004 -0.0529,0.0106 -0.0776,0.0106"
         style="fill:none;stroke:#154280;stroke-width:0.264583;stroke-linecap:round;stroke-linejoin:round;stroke-miterlimit:10;stroke-dasharray:none;stroke-opacity:1"
         id="path1-1-2"
         inkscape:export-filename="wave.svg"
         inkscape:export-xdpi="96"
         inkscape:export-ydpi="96" />
    </g>
    <g
       id="g1-9"
       transform="translate(-0.01810562,2.0395842)">
      <path
         d="m 8.4075438,1.4978262 c -0.0247,0 -0.0529,-0.007 -0.0776,-0.0106 -0.0423,-0.007 -0.0882,-0.0212 -0.13053,-0.0353 -0.41628,-0.13758 -0.79022,-0.55033 -1.07245,-1.13594 l -0.004,7e-4 c -0.3563,0.72673 -0.7784,1.18578 -1.38641,1.18534 -0.60879,-4.5e-4 -1.03364,-0.45861 -1.38642,-1.18886 l -3.5e-4,-3.6e-4 c -0.35631,0.72673 -0.84667,1.17758 -1.38642,1.17758 -0.54328,0 -1.03364,-0.45861 -1.38642,-1.18886 -0.28222,0.58561 -0.65616003,0.99836 -1.07244003,1.13594 -0.0423,0.0141 -0.0882,0.0282 -0.13053,0.0353 -0.0247,0.004 -0.0529,0.0106 -0.0776,0.0106"
         style="fill:none;stroke:#154280;stroke-width:0.264583;stroke-linecap:round;stroke-linejoin:round;stroke-miterlimit:10;stroke-dasharray:none;stroke-opacity:1"
         id="path1-0"
         inkscape:export-filename="wave.svg"
         inkscape:export-xdpi="96"
         inkscape:export-ydpi="96" />
      <path
         d="m 16.625497,1.5203052 c -0.0247,0 -0.0529,-0.007 -0.0776,-0.0106 -0.0423,-0.007 -0.0882,-0.0212 -0.13053,-0.0353 -0.41628,-0.13758 -0.79022,-0.55033003 -1.07245,-1.13594003 l -0.004,7e-4 c -0.3563,0.72673003 -0.7784,1.18578003 -1.38641,1.18534003 -0.60879,-4.5e-4 -1.03364,-0.45861 -1.38642,-1.18886003 l -3.5e-4,-3.6e-4 c -0.35631,0.72673003 -0.84667,1.17758003 -1.38642,1.17758003 -0.54328,0 -1.03364,-0.45861 -1.3864201,-1.18886003 -0.28222,0.58561 -0.65616,0.99836003 -1.07244,1.13594003 -0.0423,0.0141 -0.0882,0.0282 -0.13053,0.0353 -0.0247,0.004 -0.0529,0.0106 -0.0776,0.0106"
         style="fill:none;stroke:#154280;stroke-width:0.264583;stroke-linecap:round;stroke-linejoin:round;stroke-miterlimit:10;stroke-dasharray:none;stroke-opacity:1"
         id="path1-5-0"
         inkscape:export-filename="wave.svg"
         inkscape:export-xdpi="96"
         inkscape:export-ydpi="96" />
      <path
         d="m 24.830529,1.5469641 c -0.0247,0 -0.0529,-0.007 -0.0776,-0.0106 -0.0423,-0.007 -0.0882,-0.0212 -0.13053,-0.0353 -0.41628,-0.13758 -0.79022,-0.55032997 -1.07245,-1.13593997 l -0.004,7e-4 c -0.3563,0.72672997 -0.7784,1.18577997 -1.38641,1.18533997 -0.60879,-4.5e-4 -1.03364,-0.45861 -1.38642,-1.18885997 l -3.5e-4,-3.6e-4 c -0.35631,0.72672997 -0.84667,1.17757997 -1.38642,1.17757997 -0.54328,0 -1.03364,-0.45861 -1.38642,-1.18885997 -0.28222,0.58561 -0.65616,0.99835997 -1.07244,1.13593997 -0.0423,0.0141 -0.0882,0.0282 -0.13053,0.0353 -0.0247,0.004 -0.0529,0.0106 -0.0776,0.0106"
         style="fill:none;stroke:#154280;stroke-width:0.264583;stroke-linecap:round;stroke-linejoin:round;stroke-miterlimit:10;stroke-dasharray:none;stroke-opacity:1"
         id="path1-52-6"
         inkscape:export-filename="wave.svg"
         inkscape:export-xdpi="96"
         inkscape:export-ydpi="96" />
      <path
         d="m 33.050431,1.570671 c -0.0247,0 -0.0529,-0.007 -0.0776,-0.0106 -0.0423,-0.007 -0.0882,-0.0212 -0.13053,-0.0353 -0.41628,-0.13758 -0.79022,-0.55032997 -1.07245,-1.13593997 l -0.004,7e-4 c -0.3563,0.72672997 -0.7784,1.18577997 -1.38641,1.18533997 -0.60879,-4.5e-4 -1.03364,-0.45861 -1.38642,-1.18885997 l -3.5e-4,-3.6e-4 C 28.636361,1.112381 28.146001,1.563231 27.606251,1.563231 c -0.54328,0 -1.03364,-0.45861 -1.38642,-1.18885997 -0.28222,0.58561 -0.65616,0.99835997 -1.07244,1.13593997 -0.0423,0.0141 -0.0882,0.0282 -0.13053,0.0353 -0.0247,0.004 -0.0529,0.0106 -0.0776,0.0106"
         style="fill:none;stroke:#154280;stroke-width:0.264583;stroke-linecap:round;stroke-linejoin:round;stroke-miterlimit:10;stroke-dasharray:none;stroke-opacity:1"
         id="path1-2-1"
         inkscape:export-filename="wave.svg"
         inkscape:export-xdpi="96"
         inkscape:export-ydpi="96" />
      <path
         d="m 41.272414,1.5782793 c -0.0247,0 -0.0529,-0.007 -0.0776,-0.0106 -0.0423,-0.007 -0.0882,-0.0212 -0.13053,-0.0353 -0.41628,-0.13758 -0.79022,-0.55033 -1.07245,-1.13594 l -0.004,7e-4 c -0.3563,0.72673 -0.7784,1.18578 -1.38641,1.18534 -0.60879,-4.5e-4 -1.03364,-0.45861 -1.38642,-1.18886 l -3.5e-4,-3.6e-4 c -0.35631,0.72673 -0.84667,1.17758 -1.38642,1.17758 -0.54328,0 -1.03364,-0.45861 -1.38642,-1.18886 -0.28222,0.58561 -0.65616,0.99836 -1.07244,1.13594 -0.0423,0.0141 -0.0882,0.0282 -0.13053,0.0353 -0.0247,0.004 -0.0529,0.0106 -0.0776,0.0106"
         style="fill:none;stroke:#154280;stroke-width:0.264583;stroke-linecap:round;stroke-linejoin:round;stroke-miterlimit:10;stroke-dasharray:none;stroke-opacity:1"
         id="path1-6-3"
         inkscape:export-filename="wave.svg"
         inkscape:export-xdpi="96"
         inkscape:export-ydpi="96" />
      <path
         d="m 49.499926,1.5841734 c -0.0247,0 -0.0529,-0.007 -0.0776,-0.0106 -0.0423,-0.007 -0.0882,-0.0212 -0.13053,-0.0353 -0.41628,-0.13758 -0.79022,-0.55032999 -1.07245,-1.13593996 l -0.004,7e-4 c -0.3563,0.72672996 -0.7784,1.18577996 -1.38641,1.18533996 -0.60879,-4.5e-4 -1.03364,-0.45861 -1.38642,-1.18885996 l -3.5e-4,-3.6e-4 c -0.35631,0.72672996 -0.84667,1.17757996 -1.38642,1.17757996 -0.54328,0 -1.03364,-0.45861 -1.38642,-1.18885996 -0.28222,0.58561 -0.65616,0.99835996 -1.07244,1.13593996 -0.0423,0.0141 -0.0882,0.0282 -0.13053,0.0353 -0.0247,0.004 -0.0529,0.0106 -0.0776,0.0106"
         style="fill:none;stroke:#154280;stroke-width:0.264583;stroke-linecap:round;stroke-linejoin:round;stroke-miterlimit:10;stroke-dasharray:none;stroke-opacity:1"
         id="path1-1-8"
         inkscape:export-filename="wave.svg"
         inkscape:export-xdpi="96"
         inkscape:export-ydpi="96" />
      <path
         d="m 57.669918,1.5860762 c -0.0247,0 -0.0529,-0.007 -0.0776,-0.0106 -0.0423,-0.007 -0.0882,-0.0212 -0.13053,-0.0353 -0.41628,-0.13758 -0.79022,-0.55032996 -1.07245,-1.13593991 l -0.004,7e-4 c -0.3563,0.72672991 -0.7784,1.18577991 -1.38641,1.18533991 -0.60879,-4.5e-4 -1.03364,-0.45861 -1.38642,-1.18885991 l -3.5e-4,-3.6e-4 c -0.35631,0.72672991 -0.84667,1.17757991 -1.38642,1.17757991 -0.54328,0 -1.03364,-0.45861 -1.38642,-1.18885991 -0.28222,0.58560995 -0.65616,0.99835991 -1.07244,1.13593991 -0.0423,0.0141 -0.0882,0.0282 -0.13053,0.0353 -0.0247,0.004 -0.0529,0.0106 -0.0776,0.0106"
         style="fill:none;stroke:#154280;stroke-width:0.264583;stroke-linecap:round;stroke-linejoin:round;stroke-miterlimit:10;stroke-dasharray:none;stroke-opacity:1"
         id="path1-1-7-9"
         inkscape:export-filename="wave.svg"
         inkscape:export-xdpi="96"
         inkscape:export-ydpi="96" />
      <path
         d="m 65.864222,1.5986173 c -0.0247,0 -0.0529,-0.007 -0.0776,-0.0106 -0.0423,-0.007 -0.0882,-0.0212 -0.13053,-0.0353 -0.41628,-0.13758 -0.79022,-0.55033 -1.07245,-1.13594001 l -0.004,7e-4 c -0.3563,0.72673001 -0.7784,1.18578001 -1.38641,1.18534001 -0.60879,-4.5e-4 -1.03364,-0.45861 -1.38642,-1.18886001 l -3.5e-4,-3.6e-4 c -0.35631,0.72673001 -0.84667,1.17758001 -1.38642,1.17758001 -0.54328,0 -1.03364,-0.45861 -1.38642,-1.18886001 -0.28222,0.58561 -0.65616,0.99836001 -1.07244,1.13594001 -0.0423,0.0141 -0.0882,0.0282 -0.13053,0.0353 -0.0247,0.004 -0.0529,0.0106 -0.0776,0.0106"
         style="fill:none;stroke:#154280;stroke-width:0.264583;stroke-linecap:round;stroke-linejoin:round;stroke-miterlimit:10;stroke-dasharray:none;stroke-opacity:1"
         id="path1-1-9-3"
         inkscape:export-filename="wave.svg"
         inkscape:export-xdpi="96"
         inkscape:export-ydpi="96" />
      <path
         d="m 74.059983,1.6142783 c -0.0247,0 -0.0529,-0.007 -0.0776,-0.0106 -0.0423,-0.007 -0.0882,-0.0212 -0.13053,-0.0353 -0.41628,-0.13758 -0.79022,-0.55033 -1.07245,-1.13594002 l -0.004,7e-4 c -0.3563,0.72673002 -0.7784,1.18578002 -1.38641,1.18534002 -0.60879,-4.5e-4 -1.03364,-0.45861 -1.38642,-1.18886002 l -3.5e-4,-3.6e-4 c -0.35631,0.72673002 -0.84667,1.17758002 -1.38642,1.17758002 -0.54328,0 -1.03364,-0.45861 -1.38642,-1.18886002 -0.28222,0.58561002 -0.65616,0.99836002 -1.07244,1.13594002 -0.0423,0.0141 -0.0882,0.0282 -0.13053,0.0353 -0.0247,0.004 -0.0529,0.0106 -0.0776,0.0106"
         style="fill:none;stroke:#154280;stroke-width:0.264583;stroke-linecap:round;stroke-linejoin:round;stroke-miterlimit:10;stroke-dasharray:none;stroke-opacity:1"
         id="path1-1-2-4"
         inkscape:export-filename="wave.svg"
         inkscape:export-xdpi="96"
         inkscape:export-ydpi="96" />
    </g>
    <g
       id="g1-6"
       transform="translate(0.11228267,4.2443976)">
      <path
         d="m 8.4075438,1.4978262 c -0.0247,0 -0.0529,-0.007 -0.0776,-0.0106 -0.0423,-0.007 -0.0882,-0.0212 -0.13053,-0.0353 -0.41628,-0.13758 -0.79022,-0.55033 -1.07245,-1.13594 l -0.004,7e-4 c -0.3563,0.72673 -0.7784,1.18578 -1.38641,1.18534 -0.60879,-4.5e-4 -1.03364,-0.45861 -1.38642,-1.18886 l -3.5e-4,-3.6e-4 c -0.35631,0.72673 -0.84667,1.17758 -1.38642,1.17758 -0.54328,0 -1.03364,-0.45861 -1.38642,-1.18886 -0.28222,0.58561 -0.65616003,0.99836 -1.07244003,1.13594 -0.0423,0.0141 -0.0882,0.0282 -0.13053,0.0353 -0.0247,0.004 -0.0529,0.0106 -0.0776,0.0106"
         style="fill:none;stroke:#154280;stroke-width:0.264583;stroke-linecap:round;stroke-linejoin:round;stroke-miterlimit:10;stroke-dasharray:none;stroke-opacity:1"
         id="path1-18"
         inkscape:export-filename="wave.svg"
         inkscape:export-xdpi="96"
         inkscape:export-ydpi="96" />
      <path
         d="m 16.625497,1.5203052 c -0.0247,0 -0.0529,-0.007 -0.0776,-0.0106 -0.0423,-0.007 -0.0882,-0.0212 -0.13053,-0.0353 -0.41628,-0.13758 -0.79022,-0.55033003 -1.07245,-1.13594003 l -0.004,7e-4 c -0.3563,0.72673003 -0.7784,1.18578003 -1.38641,1.18534003 -0.60879,-4.5e-4 -1.03364,-0.45861 -1.38642,-1.18886003 l -3.5e-4,-3.6e-4 c -0.35631,0.72673003 -0.84667,1.17758003 -1.38642,1.17758003 -0.54328,0 -1.03364,-0.45861 -1.3864201,-1.18886003 -0.28222,0.58561 -0.65616,0.99836003 -1.07244,1.13594003 -0.0423,0.0141 -0.0882,0.0282 -0.13053,0.0353 -0.0247,0.004 -0.0529,0.0106 -0.0776,0.0106"
         style="fill:none;stroke:#154280;stroke-width:0.264583;stroke-linecap:round;stroke-linejoin:round;stroke-miterlimit:10;stroke-dasharray:none;stroke-opacity:1"
         id="path1-5-4"
         inkscape:export-filename="wave.svg"
         inkscape:export-xdpi="96"
         inkscape:export-ydpi="96" />
      <path
         d="m 24.830529,1.5469641 c -0.0247,0 -0.0529,-0.007 -0.0776,-0.0106 -0.0423,-0.007 -0.0882,-0.0212 -0.13053,-0.0353 -0.41628,-0.13758 -0.79022,-0.55032997 -1.07245,-1.13593997 l -0.004,7e-4 c -0.3563,0.72672997 -0.7784,1.18577997 -1.38641,1.18533997 -0.60879,-4.5e-4 -1.03364,-0.45861 -1.38642,-1.18885997 l -3.5e-4,-3.6e-4 c -0.35631,0.72672997 -0.84667,1.17757997 -1.38642,1.17757997 -0.54328,0 -1.03364,-0.45861 -1.38642,-1.18885997 -0.28222,0.58561 -0.65616,0.99835997 -1.07244,1.13593997 -0.0423,0.0141 -0.0882,0.0282 -0.13053,0.0353 -0.0247,0.004 -0.0529,0.0106 -0.0776,0.0106"
         style="fill:none;stroke:#154280;stroke-width:0.264583;stroke-linecap:round;stroke-linejoin:round;stroke-miterlimit:10;stroke-dasharray:none;stroke-opacity:1"
         id="path1-52-9"
         inkscape:export-filename="wave.svg"
         inkscape:export-xdpi="96"
         inkscape:export-ydpi="96" />
      <path
         d="m 33.050431,1.570671 c -0.0247,0 -0.0529,-0.007 -0.0776,-0.0106 -0.0423,-0.007 -0.0882,-0.0212 -0.13053,-0.0353 -0.41628,-0.13758 -0.79022,-0.55032997 -1.07245,-1.13593997 l -0.004,7e-4 c -0.3563,0.72672997 -0.7784,1.18577997 -1.38641,1.18533997 -0.60879,-4.5e-4 -1.03364,-0.45861 -1.38642,-1.18885997 l -3.5e-4,-3.6e-4 C 28.636361,1.112381 28.146001,1.563231 27.606251,1.563231 c -0.54328,0 -1.03364,-0.45861 -1.38642,-1.18885997 -0.28222,0.58561 -0.65616,0.99835997 -1.07244,1.13593997 -0.0423,0.0141 -0.0882,0.0282 -0.13053,0.0353 -0.0247,0.004 -0.0529,0.0106 -0.0776,0.0106"
         style="fill:none;stroke:#154280;stroke-width:0.264583;stroke-linecap:round;stroke-linejoin:round;stroke-miterlimit:10;stroke-dasharray:none;stroke-opacity:1"
         id="path1-2-6"
         inkscape:export-filename="wave.svg"
         inkscape:export-xdpi="96"
         inkscape:export-ydpi="96" />
      <path
         d="m 41.272414,1.5782793 c -0.0247,0 -0.0529,-0.007 -0.0776,-0.0106 -0.0423,-0.007 -0.0882,-0.0212 -0.13053,-0.0353 -0.41628,-0.13758 -0.79022,-0.55033 -1.07245,-1.13594 l -0.004,7e-4 c -0.3563,0.72673 -0.7784,1.18578 -1.38641,1.18534 -0.60879,-4.5e-4 -1.03364,-0.45861 -1.38642,-1.18886 l -3.5e-4,-3.6e-4 c -0.35631,0.72673 -0.84667,1.17758 -1.38642,1.17758 -0.54328,0 -1.03364,-0.45861 -1.38642,-1.18886 -0.28222,0.58561 -0.65616,0.99836 -1.07244,1.13594 -0.0423,0.0141 -0.0882,0.0282 -0.13053,0.0353 -0.0247,0.004 -0.0529,0.0106 -0.0776,0.0106"
         style="fill:none;stroke:#154280;stroke-width:0.264583;stroke-linecap:round;stroke-linejoin:round;stroke-miterlimit:10;stroke-dasharray:none;stroke-opacity:1"
         id="path1-6-37"
         inkscape:export-filename="wave.svg"
         inkscape:export-xdpi="96"
         inkscape:export-ydpi="96" />
      <path
         d="m 49.499926,1.5841734 c -0.0247,0 -0.0529,-0.007 -0.0776,-0.0106 -0.0423,-0.007 -0.0882,-0.0212 -0.13053,-0.0353 -0.41628,-0.13758 -0.79022,-0.55032999 -1.07245,-1.13593996 l -0.004,7e-4 c -0.3563,0.72672996 -0.7784,1.18577996 -1.38641,1.18533996 -0.60879,-4.5e-4 -1.03364,-0.45861 -1.38642,-1.18885996 l -3.5e-4,-3.6e-4 c -0.35631,0.72672996 -0.84667,1.17757996 -1.38642,1.17757996 -0.54328,0 -1.03364,-0.45861 -1.38642,-1.18885996 -0.28222,0.58561 -0.65616,0.99835996 -1.07244,1.13593996 -0.0423,0.0141 -0.0882,0.0282 -0.13053,0.0353 -0.0247,0.004 -0.0529,0.0106 -0.0776,0.0106"
         style="fill:none;stroke:#154280;stroke-width:0.264583;stroke-linecap:round;stroke-linejoin:round;stroke-miterlimit:10;stroke-dasharray:none;stroke-opacity:1"
         id="path1-1-88"
         inkscape:export-filename="wave.svg"
         inkscape:export-xdpi="96"
         inkscape:export-ydpi="96" />
      <path
         d="m 57.669918,1.5860762 c -0.0247,0 -0.0529,-0.007 -0.0776,-0.0106 -0.0423,-0.007 -0.0882,-0.0212 -0.13053,-0.0353 -0.41628,-0.13758 -0.79022,-0.55032996 -1.07245,-1.13593991 l -0.004,7e-4 c -0.3563,0.72672991 -0.7784,1.18577991 -1.38641,1.18533991 -0.60879,-4.5e-4 -1.03364,-0.45861 -1.38642,-1.18885991 l -3.5e-4,-3.6e-4 c -0.35631,0.72672991 -0.84667,1.17757991 -1.38642,1.17757991 -0.54328,0 -1.03364,-0.45861 -1.38642,-1.18885991 -0.28222,0.58560995 -0.65616,0.99835991 -1.07244,1.13593991 -0.0423,0.0141 -0.0882,0.0282 -0.13053,0.0353 -0.0247,0.004 -0.0529,0.0106 -0.0776,0.0106"
         style="fill:none;stroke:#154280;stroke-width:0.264583;stroke-linecap:round;stroke-linejoin:round;stroke-miterlimit:10;stroke-dasharray:none;stroke-opacity:1"
         id="path1-1-7-2"
         inkscape:export-filename="wave.svg"
         inkscape:export-xdpi="96"
         inkscape:export-ydpi="96" />
      <path
         d="m 65.864222,1.5986173 c -0.0247,0 -0.0529,-0.007 -0.0776,-0.0106 -0.0423,-0.007 -0.0882,-0.0212 -0.13053,-0.0353 -0.41628,-0.13758 -0.79022,-0.55033 -1.07245,-1.13594001 l -0.004,7e-4 c -0.3563,0.72673001 -0.7784,1.18578001 -1.38641,1.18534001 -0.60879,-4.5e-4 -1.03364,-0.45861 -1.38642,-1.18886001 l -3.5e-4,-3.6e-4 c -0.35631,0.72673001 -0.84667,1.17758001 -1.38642,1.17758001 -0.54328,0 -1.03364,-0.45861 -1.38642,-1.18886001 -0.28222,0.58561 -0.65616,0.99836001 -1.07244,1.13594001 -0.0423,0.0141 -0.0882,0.0282 -0.13053,0.0353 -0.0247,0.004 -0.0529,0.0106 -0.0776,0.0106"
         style="fill:none;stroke:#154280;stroke-width:0.264583;stroke-linecap:round;stroke-linejoin:round;stroke-miterlimit:10;stroke-dasharray:none;stroke-opacity:1"
         id="path1-1-9-9"
         inkscape:export-filename="wave.svg"
         inkscape:export-xdpi="96"
         inkscape:export-ydpi="96" />
      <path
         d="m 74.059983,1.6142783 c -0.0247,0 -0.0529,-0.007 -0.0776,-0.0106 -0.0423,-0.007 -0.0882,-0.0212 -0.13053,-0.0353 -0.41628,-0.13758 -0.79022,-0.55033 -1.07245,-1.13594002 l -0.004,7e-4 c -0.3563,0.72673002 -0.7784,1.18578002 -1.38641,1.18534002 -0.60879,-4.5e-4 -1.03364,-0.45861 -1.38642,-1.18886002 l -3.5e-4,-3.6e-4 c -0.35631,0.72673002 -0.84667,1.17758002 -1.38642,1.17758002 -0.54328,0 -1.03364,-0.45861 -1.38642,-1.18886002 -0.28222,0.58561002 -0.65616,0.99836002 -1.07244,1.13594002 -0.0423,0.0141 -0.0882,0.0282 -0.13053,0.0353 -0.0247,0.004 -0.0529,0.0106 -0.0776,0.0106"
         style="fill:none;stroke:#154280;stroke-width:0.264583;stroke-linecap:round;stroke-linejoin:round;stroke-miterlimit:10;stroke-dasharray:none;stroke-opacity:1"
         id="path1-1-2-1"
         inkscape:export-filename="wave.svg"
         inkscape:export-xdpi="96"
         inkscape:export-ydpi="96" />
    </g>
    <g
       id="g1-4"
       transform="translate(-0.00143855,6.3563945)">
      <path
         d="m 8.4075438,1.4978262 c -0.0247,0 -0.0529,-0.007 -0.0776,-0.0106 -0.0423,-0.007 -0.0882,-0.0212 -0.13053,-0.0353 -0.41628,-0.13758 -0.79022,-0.55033 -1.07245,-1.13594 l -0.004,7e-4 c -0.3563,0.72673 -0.7784,1.18578 -1.38641,1.18534 -0.60879,-4.5e-4 -1.03364,-0.45861 -1.38642,-1.18886 l -3.5e-4,-3.6e-4 c -0.35631,0.72673 -0.84667,1.17758 -1.38642,1.17758 -0.54328,0 -1.03364,-0.45861 -1.38642,-1.18886 -0.28222,0.58561 -0.65616003,0.99836 -1.07244003,1.13594 -0.0423,0.0141 -0.0882,0.0282 -0.13053,0.0353 -0.0247,0.004 -0.0529,0.0106 -0.0776,0.0106"
         style="fill:none;stroke:#154280;stroke-width:0.264583;stroke-linecap:round;stroke-linejoin:round;stroke-miterlimit:10;stroke-dasharray:none;stroke-opacity:1"
         id="path1-07"
         inkscape:export-filename="wave.svg"
         inkscape:export-xdpi="96"
         inkscape:export-ydpi="96" />
      <path
         d="m 16.625497,1.5203052 c -0.0247,0 -0.0529,-0.007 -0.0776,-0.0106 -0.0423,-0.007 -0.0882,-0.0212 -0.13053,-0.0353 -0.41628,-0.13758 -0.79022,-0.55033003 -1.07245,-1.13594003 l -0.004,7e-4 c -0.3563,0.72673003 -0.7784,1.18578003 -1.38641,1.18534003 -0.60879,-4.5e-4 -1.03364,-0.45861 -1.38642,-1.18886003 l -3.5e-4,-3.6e-4 c -0.35631,0.72673003 -0.84667,1.17758003 -1.38642,1.17758003 -0.54328,0 -1.03364,-0.45861 -1.3864201,-1.18886003 -0.28222,0.58561 -0.65616,0.99836003 -1.07244,1.13594003 -0.0423,0.0141 -0.0882,0.0282 -0.13053,0.0353 -0.0247,0.004 -0.0529,0.0106 -0.0776,0.0106"
         style="fill:none;stroke:#154280;stroke-width:0.264583;stroke-linecap:round;stroke-linejoin:round;stroke-miterlimit:10;stroke-dasharray:none;stroke-opacity:1"
         id="path1-5-6"
         inkscape:export-filename="wave.svg"
         inkscape:export-xdpi="96"
         inkscape:export-ydpi="96" />
      <path
         d="m 24.830529,1.5469641 c -0.0247,0 -0.0529,-0.007 -0.0776,-0.0106 -0.0423,-0.007 -0.0882,-0.0212 -0.13053,-0.0353 -0.41628,-0.13758 -0.79022,-0.55032997 -1.07245,-1.13593997 l -0.004,7e-4 c -0.3563,0.72672997 -0.7784,1.18577997 -1.38641,1.18533997 -0.60879,-4.5e-4 -1.03364,-0.45861 -1.38642,-1.18885997 l -3.5e-4,-3.6e-4 c -0.35631,0.72672997 -0.84667,1.17757997 -1.38642,1.17757997 -0.54328,0 -1.03364,-0.45861 -1.38642,-1.18885997 -0.28222,0.58561 -0.65616,0.99835997 -1.07244,1.13593997 -0.0423,0.0141 -0.0882,0.0282 -0.13053,0.0353 -0.0247,0.004 -0.0529,0.0106 -0.0776,0.0106"
         style="fill:none;stroke:#154280;stroke-width:0.264583;stroke-linecap:round;stroke-linejoin:round;stroke-miterlimit:10;stroke-dasharray:none;stroke-opacity:1"
         id="path1-52-3"
         inkscape:export-filename="wave.svg"
         inkscape:export-xdpi="96"
         inkscape:export-ydpi="96" />
      <path
         d="m 33.050431,1.570671 c -0.0247,0 -0.0529,-0.007 -0.0776,-0.0106 -0.0423,-0.007 -0.0882,-0.0212 -0.13053,-0.0353 -0.41628,-0.13758 -0.79022,-0.55032997 -1.07245,-1.13593997 l -0.004,7e-4 c -0.3563,0.72672997 -0.7784,1.18577997 -1.38641,1.18533997 -0.60879,-4.5e-4 -1.03364,-0.45861 -1.38642,-1.18885997 l -3.5e-4,-3.6e-4 C 28.636361,1.112381 28.146001,1.563231 27.606251,1.563231 c -0.54328,0 -1.03364,-0.45861 -1.38642,-1.18885997 -0.28222,0.58561 -0.65616,0.99835997 -1.07244,1.13593997 -0.0423,0.0141 -0.0882,0.0282 -0.13053,0.0353 -0.0247,0.004 -0.0529,0.0106 -0.0776,0.0106"
         style="fill:none;stroke:#154280;stroke-width:0.264583;stroke-linecap:round;stroke-linejoin:round;stroke-miterlimit:10;stroke-dasharray:none;stroke-opacity:1"
         id="path1-2-61"
         inkscape:export-filename="wave.svg"
         inkscape:export-xdpi="96"
         inkscape:export-ydpi="96" />
      <path
         d="m 41.272414,1.5782793 c -0.0247,0 -0.0529,-0.007 -0.0776,-0.0106 -0.0423,-0.007 -0.0882,-0.0212 -0.13053,-0.0353 -0.41628,-0.13758 -0.79022,-0.55033 -1.07245,-1.13594 l -0.004,7e-4 c -0.3563,0.72673 -0.7784,1.18578 -1.38641,1.18534 -0.60879,-4.5e-4 -1.03364,-0.45861 -1.38642,-1.18886 l -3.5e-4,-3.6e-4 c -0.35631,0.72673 -0.84667,1.17758 -1.38642,1.17758 -0.54328,0 -1.03364,-0.45861 -1.38642,-1.18886 -0.28222,0.58561 -0.65616,0.99836 -1.07244,1.13594 -0.0423,0.0141 -0.0882,0.0282 -0.13053,0.0353 -0.0247,0.004 -0.0529,0.0106 -0.0776,0.0106"
         style="fill:none;stroke:#154280;stroke-width:0.264583;stroke-linecap:round;stroke-linejoin:round;stroke-miterlimit:10;stroke-dasharray:none;stroke-opacity:1"
         id="path1-6-5"
         inkscape:export-filename="wave.svg"
         inkscape:export-xdpi="96"
         inkscape:export-ydpi="96" />
      <path
         d="m 49.499926,1.5841734 c -0.0247,0 -0.0529,-0.007 -0.0776,-0.0106 -0.0423,-0.007 -0.0882,-0.0212 -0.13053,-0.0353 -0.41628,-0.13758 -0.79022,-0.55032999 -1.07245,-1.13593996 l -0.004,7e-4 c -0.3563,0.72672996 -0.7784,1.18577996 -1.38641,1.18533996 -0.60879,-4.5e-4 -1.03364,-0.45861 -1.38642,-1.18885996 l -3.5e-4,-3.6e-4 c -0.35631,0.72672996 -0.84667,1.17757996 -1.38642,1.17757996 -0.54328,0 -1.03364,-0.45861 -1.38642,-1.18885996 -0.28222,0.58561 -0.65616,0.99835996 -1.07244,1.13593996 -0.0423,0.0141 -0.0882,0.0282 -0.13053,0.0353 -0.0247,0.004 -0.0529,0.0106 -0.0776,0.0106"
         style="fill:none;stroke:#154280;stroke-width:0.264583;stroke-linecap:round;stroke-linejoin:round;stroke-miterlimit:10;stroke-dasharray:none;stroke-opacity:1"
         id="path1-1-4"
         inkscape:export-filename="wave.svg"
         inkscape:export-xdpi="96"
         inkscape:export-ydpi="96" />
      <path
         d="m 57.669918,1.5860762 c -0.0247,0 -0.0529,-0.007 -0.0776,-0.0106 -0.0423,-0.007 -0.0882,-0.0212 -0.13053,-0.0353 -0.41628,-0.13758 -0.79022,-0.55032996 -1.07245,-1.13593991 l -0.004,7e-4 c -0.3563,0.72672991 -0.7784,1.18577991 -1.38641,1.18533991 -0.60879,-4.5e-4 -1.03364,-0.45861 -1.38642,-1.18885991 l -3.5e-4,-3.6e-4 c -0.35631,0.72672991 -0.84667,1.17757991 -1.38642,1.17757991 -0.54328,0 -1.03364,-0.45861 -1.38642,-1.18885991 -0.28222,0.58560995 -0.65616,0.99835991 -1.07244,1.13593991 -0.0423,0.0141 -0.0882,0.0282 -0.13053,0.0353 -0.0247,0.004 -0.0529,0.0106 -0.0776,0.0106"
         style="fill:none;stroke:#154280;stroke-width:0.264583;stroke-linecap:round;stroke-linejoin:round;stroke-miterlimit:10;stroke-dasharray:none;stroke-opacity:1"
         id="path1-1-7-20"
         inkscape:export-filename="wave.svg"
         inkscape:export-xdpi="96"
         inkscape:export-ydpi="96" />
      <path
         d="m 65.864222,1.5986173 c -0.0247,0 -0.0529,-0.007 -0.0776,-0.0106 -0.0423,-0.007 -0.0882,-0.0212 -0.13053,-0.0353 -0.41628,-0.13758 -0.79022,-0.55033 -1.07245,-1.13594001 l -0.004,7e-4 c -0.3563,0.72673001 -0.7784,1.18578001 -1.38641,1.18534001 -0.60879,-4.5e-4 -1.03364,-0.45861 -1.38642,-1.18886001 l -3.5e-4,-3.6e-4 c -0.35631,0.72673001 -0.84667,1.17758001 -1.38642,1.17758001 -0.54328,0 -1.03364,-0.45861 -1.38642,-1.18886001 -0.28222,0.58561 -0.65616,0.99836001 -1.07244,1.13594001 -0.0423,0.0141 -0.0882,0.0282 -0.13053,0.0353 -0.0247,0.004 -0.0529,0.0106 -0.0776,0.0106"
         style="fill:none;stroke:#154280;stroke-width:0.264583;stroke-linecap:round;stroke-linejoin:round;stroke-miterlimit:10;stroke-dasharray:none;stroke-opacity:1"
         id="path1-1-9-97"
         inkscape:export-filename="wave.svg"
         inkscape:export-xdpi="96"
         inkscape:export-ydpi="96" />
      <path
         d="m 74.059983,1.6142783 c -0.0247,0 -0.0529,-0.007 -0.0776,-0.0106 -0.0423,-0.007 -0.0882,-0.0212 -0.13053,-0.0353 -0.41628,-0.13758 -0.79022,-0.55033 -1.07245,-1.13594002 l -0.004,7e-4 c -0.3563,0.72673002 -0.7784,1.18578002 -1.38641,1.18534002 -0.60879,-4.5e-4 -1.03364,-0.45861 -1.38642,-1.18886002 l -3.5e-4,-3.6e-4 c -0.35631,0.72673002 -0.84667,1.17758002 -1.38642,1.17758002 -0.54328,0 -1.03364,-0.45861 -1.38642,-1.18886002 -0.28222,0.58561002 -0.65616,0.99836002 -1.07244,1.13594002 -0.0423,0.0141 -0.0882,0.0282 -0.13053,0.0353 -0.0247,0.004 -0.0529,0.0106 -0.0776,0.0106"
         style="fill:none;stroke:#154280;stroke-width:0.264583;stroke-linecap:round;stroke-linejoin:round;stroke-miterlimit:10;stroke-dasharray:none;stroke-opacity:1"
         id="path1-1-2-3"
         inkscape:export-filename="wave.svg"
         inkscape:export-xdpi="96"
         inkscape:export-ydpi="96" />
    </g>
    <g
       id="g1-1"
       transform="translate(0.10517061,8.5433202)">
      <path
         d="m 8.4075438,1.4978262 c -0.0247,0 -0.0529,-0.007 -0.0776,-0.0106 -0.0423,-0.007 -0.0882,-0.0212 -0.13053,-0.0353 -0.41628,-0.13758 -0.79022,-0.55033 -1.07245,-1.13594 l -0.004,7e-4 c -0.3563,0.72673 -0.7784,1.18578 -1.38641,1.18534 -0.60879,-4.5e-4 -1.03364,-0.45861 -1.38642,-1.18886 l -3.5e-4,-3.6e-4 c -0.35631,0.72673 -0.84667,1.17758 -1.38642,1.17758 -0.54328,0 -1.03364,-0.45861 -1.38642,-1.18886 -0.28222,0.58561 -0.65616003,0.99836 -1.07244003,1.13594 -0.0423,0.0141 -0.0882,0.0282 -0.13053,0.0353 -0.0247,0.004 -0.0529,0.0106 -0.0776,0.0106"
         style="fill:none;stroke:#154280;stroke-width:0.264583;stroke-linecap:round;stroke-linejoin:round;stroke-miterlimit:10;stroke-dasharray:none;stroke-opacity:1"
         id="path1-65"
         inkscape:export-filename="wave.svg"
         inkscape:export-xdpi="96"
         inkscape:export-ydpi="96" />
      <path
         d="m 16.625497,1.5203052 c -0.0247,0 -0.0529,-0.007 -0.0776,-0.0106 -0.0423,-0.007 -0.0882,-0.0212 -0.13053,-0.0353 -0.41628,-0.13758 -0.79022,-0.55033003 -1.07245,-1.13594003 l -0.004,7e-4 c -0.3563,0.72673003 -0.7784,1.18578003 -1.38641,1.18534003 -0.60879,-4.5e-4 -1.03364,-0.45861 -1.38642,-1.18886003 l -3.5e-4,-3.6e-4 c -0.35631,0.72673003 -0.84667,1.17758003 -1.38642,1.17758003 -0.54328,0 -1.03364,-0.45861 -1.3864201,-1.18886003 -0.28222,0.58561 -0.65616,0.99836003 -1.07244,1.13594003 -0.0423,0.0141 -0.0882,0.0282 -0.13053,0.0353 -0.0247,0.004 -0.0529,0.0106 -0.0776,0.0106"
         style="fill:none;stroke:#154280;stroke-width:0.264583;stroke-linecap:round;stroke-linejoin:round;stroke-miterlimit:10;stroke-dasharray:none;stroke-opacity:1"
         id="path1-5-7"
         inkscape:export-filename="wave.svg"
         inkscape:export-xdpi="96"
         inkscape:export-ydpi="96" />
      <path
         d="m 24.830529,1.5469641 c -0.0247,0 -0.0529,-0.007 -0.0776,-0.0106 -0.0423,-0.007 -0.0882,-0.0212 -0.13053,-0.0353 -0.41628,-0.13758 -0.79022,-0.55032997 -1.07245,-1.13593997 l -0.004,7e-4 c -0.3563,0.72672997 -0.7784,1.18577997 -1.38641,1.18533997 -0.60879,-4.5e-4 -1.03364,-0.45861 -1.38642,-1.18885997 l -3.5e-4,-3.6e-4 c -0.35631,0.72672997 -0.84667,1.17757997 -1.38642,1.17757997 -0.54328,0 -1.03364,-0.45861 -1.38642,-1.18885997 -0.28222,0.58561 -0.65616,0.99835997 -1.07244,1.13593997 -0.0423,0.0141 -0.0882,0.0282 -0.13053,0.0353 -0.0247,0.004 -0.0529,0.0106 -0.0776,0.0106"
         style="fill:none;stroke:#154280;stroke-width:0.264583;stroke-linecap:round;stroke-linejoin:round;stroke-miterlimit:10;stroke-dasharray:none;stroke-opacity:1"
         id="path1-52-5"
         inkscape:export-filename="wave.svg"
         inkscape:export-xdpi="96"
         inkscape:export-ydpi="96" />
      <path
         d="m 33.050431,1.570671 c -0.0247,0 -0.0529,-0.007 -0.0776,-0.0106 -0.0423,-0.007 -0.0882,-0.0212 -0.13053,-0.0353 -0.41628,-0.13758 -0.79022,-0.55032997 -1.07245,-1.13593997 l -0.004,7e-4 c -0.3563,0.72672997 -0.7784,1.18577997 -1.38641,1.18533997 -0.60879,-4.5e-4 -1.03364,-0.45861 -1.38642,-1.18885997 l -3.5e-4,-3.6e-4 C 28.636361,1.112381 28.146001,1.563231 27.606251,1.563231 c -0.54328,0 -1.03364,-0.45861 -1.38642,-1.18885997 -0.28222,0.58561 -0.65616,0.99835997 -1.07244,1.13593997 -0.0423,0.0141 -0.0882,0.0282 -0.13053,0.0353 -0.0247,0.004 -0.0529,0.0106 -0.0776,0.0106"
         style="fill:none;stroke:#154280;stroke-width:0.264583;stroke-linecap:round;stroke-linejoin:round;stroke-miterlimit:10;stroke-dasharray:none;stroke-opacity:1"
         id="path1-2-4"
         inkscape:export-filename="wave.svg"
         inkscape:export-xdpi="96"
         inkscape:export-ydpi="96" />
      <path
         d="m 41.272414,1.5782793 c -0.0247,0 -0.0529,-0.007 -0.0776,-0.0106 -0.0423,-0.007 -0.0882,-0.0212 -0.13053,-0.0353 -0.41628,-0.13758 -0.79022,-0.55033 -1.07245,-1.13594 l -0.004,7e-4 c -0.3563,0.72673 -0.7784,1.18578 -1.38641,1.18534 -0.60879,-4.5e-4 -1.03364,-0.45861 -1.38642,-1.18886 l -3.5e-4,-3.6e-4 c -0.35631,0.72673 -0.84667,1.17758 -1.38642,1.17758 -0.54328,0 -1.03364,-0.45861 -1.38642,-1.18886 -0.28222,0.58561 -0.65616,0.99836 -1.07244,1.13594 -0.0423,0.0141 -0.0882,0.0282 -0.13053,0.0353 -0.0247,0.004 -0.0529,0.0106 -0.0776,0.0106"
         style="fill:none;stroke:#154280;stroke-width:0.264583;stroke-linecap:round;stroke-linejoin:round;stroke-miterlimit:10;stroke-dasharray:none;stroke-opacity:1"
         id="path1-6-1"
         inkscape:export-filename="wave.svg"
         inkscape:export-xdpi="96"
         inkscape:export-ydpi="96" />
      <path
         d="m 49.499926,1.5841734 c -0.0247,0 -0.0529,-0.007 -0.0776,-0.0106 -0.0423,-0.007 -0.0882,-0.0212 -0.13053,-0.0353 -0.41628,-0.13758 -0.79022,-0.55032999 -1.07245,-1.13593996 l -0.004,7e-4 c -0.3563,0.72672996 -0.7784,1.18577996 -1.38641,1.18533996 -0.60879,-4.5e-4 -1.03364,-0.45861 -1.38642,-1.18885996 l -3.5e-4,-3.6e-4 c -0.35631,0.72672996 -0.84667,1.17757996 -1.38642,1.17757996 -0.54328,0 -1.03364,-0.45861 -1.38642,-1.18885996 -0.28222,0.58561 -0.65616,0.99835996 -1.07244,1.13593996 -0.0423,0.0141 -0.0882,0.0282 -0.13053,0.0353 -0.0247,0.004 -0.0529,0.0106 -0.0776,0.0106"
         style="fill:none;stroke:#154280;stroke-width:0.264583;stroke-linecap:round;stroke-linejoin:round;stroke-miterlimit:10;stroke-dasharray:none;stroke-opacity:1"
         id="path1-1-20"
         inkscape:export-filename="wave.svg"
         inkscape:export-xdpi="96"
         inkscape:export-ydpi="96" />
      <path
         d="m 57.669918,1.5860762 c -0.0247,0 -0.0529,-0.007 -0.0776,-0.0106 -0.0423,-0.007 -0.0882,-0.0212 -0.13053,-0.0353 -0.41628,-0.13758 -0.79022,-0.55032996 -1.07245,-1.13593991 l -0.004,7e-4 c -0.3563,0.72672991 -0.7784,1.18577991 -1.38641,1.18533991 -0.60879,-4.5e-4 -1.03364,-0.45861 -1.38642,-1.18885991 l -3.5e-4,-3.6e-4 c -0.35631,0.72672991 -0.84667,1.17757991 -1.38642,1.17757991 -0.54328,0 -1.03364,-0.45861 -1.38642,-1.18885991 -0.28222,0.58560995 -0.65616,0.99835991 -1.07244,1.13593991 -0.0423,0.0141 -0.0882,0.0282 -0.13053,0.0353 -0.0247,0.004 -0.0529,0.0106 -0.0776,0.0106"
         style="fill:none;stroke:#154280;stroke-width:0.264583;stroke-linecap:round;stroke-linejoin:round;stroke-miterlimit:10;stroke-dasharray:none;stroke-opacity:1"
         id="path1-1-7-0"
         inkscape:export-filename="wave.svg"
         inkscape:export-xdpi="96"
         inkscape:export-ydpi="96" />
      <path
         d="m 65.864222,1.5986173 c -0.0247,0 -0.0529,-0.007 -0.0776,-0.0106 -0.0423,-0.007 -0.0882,-0.0212 -0.13053,-0.0353 -0.41628,-0.13758 -0.79022,-0.55033 -1.07245,-1.13594001 l -0.004,7e-4 c -0.3563,0.72673001 -0.7784,1.18578001 -1.38641,1.18534001 -0.60879,-4.5e-4 -1.03364,-0.45861 -1.38642,-1.18886001 l -3.5e-4,-3.6e-4 c -0.35631,0.72673001 -0.84667,1.17758001 -1.38642,1.17758001 -0.54328,0 -1.03364,-0.45861 -1.38642,-1.18886001 -0.28222,0.58561 -0.65616,0.99836001 -1.07244,1.13594001 -0.0423,0.0141 -0.0882,0.0282 -0.13053,0.0353 -0.0247,0.004 -0.0529,0.0106 -0.0776,0.0106"
         style="fill:none;stroke:#154280;stroke-width:0.264583;stroke-linecap:round;stroke-linejoin:round;stroke-miterlimit:10;stroke-dasharray:none;stroke-opacity:1"
         id="path1-1-9-1"
         inkscape:export-filename="wave.svg"
         inkscape:export-xdpi="96"
         inkscape:export-ydpi="96" />
      <path
         d="m 74.059983,1.6142783 c -0.0247,0 -0.0529,-0.007 -0.0776,-0.0106 -0.0423,-0.007 -0.0882,-0.0212 -0.13053,-0.0353 -0.41628,-0.13758 -0.79022,-0.55033 -1.07245,-1.13594002 l -0.004,7e-4 c -0.3563,0.72673002 -0.7784,1.18578002 -1.38641,1.18534002 -0.60879,-4.5e-4 -1.03364,-0.45861 -1.38642,-1.18886002 l -3.5e-4,-3.6e-4 c -0.35631,0.72673002 -0.84667,1.17758002 -1.38642,1.17758002 -0.54328,0 -1.03364,-0.45861 -1.38642,-1.18886002 -0.28222,0.58561002 -0.65616,0.99836002 -1.07244,1.13594002 -0.0423,0.0141 -0.0882,0.0282 -0.13053,0.0353 -0.0247,0.004 -0.0529,0.0106 -0.0776,0.0106"
         style="fill:none;stroke:#154280;stroke-width:0.264583;stroke-linecap:round;stroke-linejoin:round;stroke-miterlimit:10;stroke-dasharray:none;stroke-opacity:1"
         id="path1-1-2-46"
         inkscape:export-filename="wave.svg"
         inkscape:export-xdpi="96"
         inkscape:export-ydpi="96" />
    </g>
    <g
       id="g1-7"
       transform="translate(0.06415046,10.679886)">
      <path
         d="m 8.4075438,1.4978262 c -0.0247,0 -0.0529,-0.007 -0.0776,-0.0106 -0.0423,-0.007 -0.0882,-0.0212 -0.13053,-0.0353 -0.41628,-0.13758 -0.79022,-0.55033 -1.07245,-1.13594 l -0.004,7e-4 c -0.3563,0.72673 -0.7784,1.18578 -1.38641,1.18534 -0.60879,-4.5e-4 -1.03364,-0.45861 -1.38642,-1.18886 l -3.5e-4,-3.6e-4 c -0.35631,0.72673 -0.84667,1.17758 -1.38642,1.17758 -0.54328,0 -1.03364,-0.45861 -1.38642,-1.18886 -0.28222,0.58561 -0.65616003,0.99836 -1.07244003,1.13594 -0.0423,0.0141 -0.0882,0.0282 -0.13053,0.0353 -0.0247,0.004 -0.0529,0.0106 -0.0776,0.0106"
         style="fill:none;stroke:#154280;stroke-width:0.264583;stroke-linecap:round;stroke-linejoin:round;stroke-miterlimit:10;stroke-dasharray:none;stroke-opacity:1"
         id="path1-7"
         inkscape:export-filename="wave.svg"
         inkscape:export-xdpi="96"
         inkscape:export-ydpi="96" />
      <path
         d="m 16.625497,1.5203052 c -0.0247,0 -0.0529,-0.007 -0.0776,-0.0106 -0.0423,-0.007 -0.0882,-0.0212 -0.13053,-0.0353 -0.41628,-0.13758 -0.79022,-0.55033003 -1.07245,-1.13594003 l -0.004,7e-4 c -0.3563,0.72673003 -0.7784,1.18578003 -1.38641,1.18534003 -0.60879,-4.5e-4 -1.03364,-0.45861 -1.38642,-1.18886003 l -3.5e-4,-3.6e-4 c -0.35631,0.72673003 -0.84667,1.17758003 -1.38642,1.17758003 -0.54328,0 -1.03364,-0.45861 -1.3864201,-1.18886003 -0.28222,0.58561 -0.65616,0.99836003 -1.07244,1.13594003 -0.0423,0.0141 -0.0882,0.0282 -0.13053,0.0353 -0.0247,0.004 -0.0529,0.0106 -0.0776,0.0106"
         style="fill:none;stroke:#154280;stroke-width:0.264583;stroke-linecap:round;stroke-linejoin:round;stroke-miterlimit:10;stroke-dasharray:none;stroke-opacity:1"
         id="path1-5-73"
         inkscape:export-filename="wave.svg"
         inkscape:export-xdpi="96"
         inkscape:export-ydpi="96" />
      <path
         d="m 24.830529,1.5469641 c -0.0247,0 -0.0529,-0.007 -0.0776,-0.0106 -0.0423,-0.007 -0.0882,-0.0212 -0.13053,-0.0353 -0.41628,-0.13758 -0.79022,-0.55032997 -1.07245,-1.13593997 l -0.004,7e-4 c -0.3563,0.72672997 -0.7784,1.18577997 -1.38641,1.18533997 -0.60879,-4.5e-4 -1.03364,-0.45861 -1.38642,-1.18885997 l -3.5e-4,-3.6e-4 c -0.35631,0.72672997 -0.84667,1.17757997 -1.38642,1.17757997 -0.54328,0 -1.03364,-0.45861 -1.38642,-1.18885997 -0.28222,0.58561 -0.65616,0.99835997 -1.07244,1.13593997 -0.0423,0.0141 -0.0882,0.0282 -0.13053,0.0353 -0.0247,0.004 -0.0529,0.0106 -0.0776,0.0106"
         style="fill:none;stroke:#154280;stroke-width:0.264583;stroke-linecap:round;stroke-linejoin:round;stroke-miterlimit:10;stroke-dasharray:none;stroke-opacity:1"
         id="path1-52-35"
         inkscape:export-filename="wave.svg"
         inkscape:export-xdpi="96"
         inkscape:export-ydpi="96" />
      <path
         d="m 33.050431,1.570671 c -0.0247,0 -0.0529,-0.007 -0.0776,-0.0106 -0.0423,-0.007 -0.0882,-0.0212 -0.13053,-0.0353 -0.41628,-0.13758 -0.79022,-0.55032997 -1.07245,-1.13593997 l -0.004,7e-4 c -0.3563,0.72672997 -0.7784,1.18577997 -1.38641,1.18533997 -0.60879,-4.5e-4 -1.03364,-0.45861 -1.38642,-1.18885997 l -3.5e-4,-3.6e-4 C 28.636361,1.112381 28.146001,1.563231 27.606251,1.563231 c -0.54328,0 -1.03364,-0.45861 -1.38642,-1.18885997 -0.28222,0.58561 -0.65616,0.99835997 -1.07244,1.13593997 -0.0423,0.0141 -0.0882,0.0282 -0.13053,0.0353 -0.0247,0.004 -0.0529,0.0106 -0.0776,0.0106"
         style="fill:none;stroke:#154280;stroke-width:0.264583;stroke-linecap:round;stroke-linejoin:round;stroke-miterlimit:10;stroke-dasharray:none;stroke-opacity:1"
         id="path1-2-9"
         inkscape:export-filename="wave.svg"
         inkscape:export-xdpi="96"
         inkscape:export-ydpi="96" />
      <path
         d="m 41.272414,1.5782793 c -0.0247,0 -0.0529,-0.007 -0.0776,-0.0106 -0.0423,-0.007 -0.0882,-0.0212 -0.13053,-0.0353 -0.41628,-0.13758 -0.79022,-0.55033 -1.07245,-1.13594 l -0.004,7e-4 c -0.3563,0.72673 -0.7784,1.18578 -1.38641,1.18534 -0.60879,-4.5e-4 -1.03364,-0.45861 -1.38642,-1.18886 l -3.5e-4,-3.6e-4 c -0.35631,0.72673 -0.84667,1.17758 -1.38642,1.17758 -0.54328,0 -1.03364,-0.45861 -1.38642,-1.18886 -0.28222,0.58561 -0.65616,0.99836 -1.07244,1.13594 -0.0423,0.0141 -0.0882,0.0282 -0.13053,0.0353 -0.0247,0.004 -0.0529,0.0106 -0.0776,0.0106"
         style="fill:none;stroke:#154280;stroke-width:0.264583;stroke-linecap:round;stroke-linejoin:round;stroke-miterlimit:10;stroke-dasharray:none;stroke-opacity:1"
         id="path1-6-9"
         inkscape:export-filename="wave.svg"
         inkscape:export-xdpi="96"
         inkscape:export-ydpi="96" />
      <path
         d="m 49.499926,1.5841734 c -0.0247,0 -0.0529,-0.007 -0.0776,-0.0106 -0.0423,-0.007 -0.0882,-0.0212 -0.13053,-0.0353 -0.41628,-0.13758 -0.79022,-0.55032999 -1.07245,-1.13593996 l -0.004,7e-4 c -0.3563,0.72672996 -0.7784,1.18577996 -1.38641,1.18533996 -0.60879,-4.5e-4 -1.03364,-0.45861 -1.38642,-1.18885996 l -3.5e-4,-3.6e-4 c -0.35631,0.72672996 -0.84667,1.17757996 -1.38642,1.17757996 -0.54328,0 -1.03364,-0.45861 -1.38642,-1.18885996 -0.28222,0.58561 -0.65616,0.99835996 -1.07244,1.13593996 -0.0423,0.0141 -0.0882,0.0282 -0.13053,0.0353 -0.0247,0.004 -0.0529,0.0106 -0.0776,0.0106"
         style="fill:none;stroke:#154280;stroke-width:0.264583;stroke-linecap:round;stroke-linejoin:round;stroke-miterlimit:10;stroke-dasharray:none;stroke-opacity:1"
         id="path1-1-81"
         inkscape:export-filename="wave.svg"
         inkscape:export-xdpi="96"
         inkscape:export-ydpi="96" />
      <path
         d="m 57.669918,1.5860762 c -0.0247,0 -0.0529,-0.007 -0.0776,-0.0106 -0.0423,-0.007 -0.0882,-0.0212 -0.13053,-0.0353 -0.41628,-0.13758 -0.79022,-0.55032996 -1.07245,-1.13593991 l -0.004,7e-4 c -0.3563,0.72672991 -0.7784,1.18577991 -1.38641,1.18533991 -0.60879,-4.5e-4 -1.03364,-0.45861 -1.38642,-1.18885991 l -3.5e-4,-3.6e-4 c -0.35631,0.72672991 -0.84667,1.17757991 -1.38642,1.17757991 -0.54328,0 -1.03364,-0.45861 -1.38642,-1.18885991 -0.28222,0.58560995 -0.65616,0.99835991 -1.07244,1.13593991 -0.0423,0.0141 -0.0882,0.0282 -0.13053,0.0353 -0.0247,0.004 -0.0529,0.0106 -0.0776,0.0106"
         style="fill:none;stroke:#154280;stroke-width:0.264583;stroke-linecap:round;stroke-linejoin:round;stroke-miterlimit:10;stroke-dasharray:none;stroke-opacity:1"
         id="path1-1-7-8"
         inkscape:export-filename="wave.svg"
         inkscape:export-xdpi="96"
         inkscape:export-ydpi="96" />
      <path
         d="m 65.864222,1.5986173 c -0.0247,0 -0.0529,-0.007 -0.0776,-0.0106 -0.0423,-0.007 -0.0882,-0.0212 -0.13053,-0.0353 -0.41628,-0.13758 -0.79022,-0.55033 -1.07245,-1.13594001 l -0.004,7e-4 c -0.3563,0.72673001 -0.7784,1.18578001 -1.38641,1.18534001 -0.60879,-4.5e-4 -1.03364,-0.45861 -1.38642,-1.18886001 l -3.5e-4,-3.6e-4 c -0.35631,0.72673001 -0.84667,1.17758001 -1.38642,1.17758001 -0.54328,0 -1.03364,-0.45861 -1.38642,-1.18886001 -0.28222,0.58561 -0.65616,0.99836001 -1.07244,1.13594001 -0.0423,0.0141 -0.0882,0.0282 -0.13053,0.0353 -0.0247,0.004 -0.0529,0.0106 -0.0776,0.0106"
         style="fill:none;stroke:#154280;stroke-width:0.264583;stroke-linecap:round;stroke-linejoin:round;stroke-miterlimit:10;stroke-dasharray:none;stroke-opacity:1"
         id="path1-1-9-2"
         inkscape:export-filename="wave.svg"
         inkscape:export-xdpi="96"
         inkscape:export-ydpi="96" />
      <path
         d="m 74.059983,1.6142783 c -0.0247,0 -0.0529,-0.007 -0.0776,-0.0106 -0.0423,-0.007 -0.0882,-0.0212 -0.13053,-0.0353 -0.41628,-0.13758 -0.79022,-0.55033 -1.07245,-1.13594002 l -0.004,7e-4 c -0.3563,0.72673002 -0.7784,1.18578002 -1.38641,1.18534002 -0.60879,-4.5e-4 -1.03364,-0.45861 -1.38642,-1.18886002 l -3.5e-4,-3.6e-4 c -0.35631,0.72673002 -0.84667,1.17758002 -1.38642,1.17758002 -0.54328,0 -1.03364,-0.45861 -1.38642,-1.18886002 -0.28222,0.58561002 -0.65616,0.99836002 -1.07244,1.13594002 -0.0423,0.0141 -0.0882,0.0282 -0.13053,0.0353 -0.0247,0.004 -0.0529,0.0106 -0.0776,0.0106"
         style="fill:none;stroke:#154280;stroke-width:0.264583;stroke-linecap:round;stroke-linejoin:round;stroke-miterlimit:10;stroke-dasharray:none;stroke-opacity:1"
         id="path1-1-2-6"
         inkscape:export-filename="wave.svg"
         inkscape:export-xdpi="96"
         inkscape:export-ydpi="96" />
    </g>
    <g
       id="g1-0"
       transform="translate(-0.00610815,12.831682)">
      <path
         d="m 8.4075438,1.4978262 c -0.0247,0 -0.0529,-0.007 -0.0776,-0.0106 -0.0423,-0.007 -0.0882,-0.0212 -0.13053,-0.0353 -0.41628,-0.13758 -0.79022,-0.55033 -1.07245,-1.13594 l -0.004,7e-4 c -0.3563,0.72673 -0.7784,1.18578 -1.38641,1.18534 -0.60879,-4.5e-4 -1.03364,-0.45861 -1.38642,-1.18886 l -3.5e-4,-3.6e-4 c -0.35631,0.72673 -0.84667,1.17758 -1.38642,1.17758 -0.54328,0 -1.03364,-0.45861 -1.38642,-1.18886 -0.28222,0.58561 -0.65616003,0.99836 -1.07244003,1.13594 -0.0423,0.0141 -0.0882,0.0282 -0.13053,0.0353 -0.0247,0.004 -0.0529,0.0106 -0.0776,0.0106"
         style="fill:none;stroke:#154280;stroke-width:0.264583;stroke-linecap:round;stroke-linejoin:round;stroke-miterlimit:10;stroke-dasharray:none;stroke-opacity:1"
         id="path1-12"
         inkscape:export-filename="wave.svg"
         inkscape:export-xdpi="96"
         inkscape:export-ydpi="96" />
      <path
         d="m 16.625497,1.5203052 c -0.0247,0 -0.0529,-0.007 -0.0776,-0.0106 -0.0423,-0.007 -0.0882,-0.0212 -0.13053,-0.0353 -0.41628,-0.13758 -0.79022,-0.55033003 -1.07245,-1.13594003 l -0.004,7e-4 c -0.3563,0.72673003 -0.7784,1.18578003 -1.38641,1.18534003 -0.60879,-4.5e-4 -1.03364,-0.45861 -1.38642,-1.18886003 l -3.5e-4,-3.6e-4 c -0.35631,0.72673003 -0.84667,1.17758003 -1.38642,1.17758003 -0.54328,0 -1.03364,-0.45861 -1.3864201,-1.18886003 -0.28222,0.58561 -0.65616,0.99836003 -1.07244,1.13594003 -0.0423,0.0141 -0.0882,0.0282 -0.13053,0.0353 -0.0247,0.004 -0.0529,0.0106 -0.0776,0.0106"
         style="fill:none;stroke:#154280;stroke-width:0.264583;stroke-linecap:round;stroke-linejoin:round;stroke-miterlimit:10;stroke-dasharray:none;stroke-opacity:1"
         id="path1-5-5"
         inkscape:export-filename="wave.svg"
         inkscape:export-xdpi="96"
         inkscape:export-ydpi="96" />
      <path
         d="m 24.830529,1.5469641 c -0.0247,0 -0.0529,-0.007 -0.0776,-0.0106 -0.0423,-0.007 -0.0882,-0.0212 -0.13053,-0.0353 -0.41628,-0.13758 -0.79022,-0.55032997 -1.07245,-1.13593997 l -0.004,7e-4 c -0.3563,0.72672997 -0.7784,1.18577997 -1.38641,1.18533997 -0.60879,-4.5e-4 -1.03364,-0.45861 -1.38642,-1.18885997 l -3.5e-4,-3.6e-4 c -0.35631,0.72672997 -0.84667,1.17757997 -1.38642,1.17757997 -0.54328,0 -1.03364,-0.45861 -1.38642,-1.18885997 -0.28222,0.58561 -0.65616,0.99835997 -1.07244,1.13593997 -0.0423,0.0141 -0.0882,0.0282 -0.13053,0.0353 -0.0247,0.004 -0.0529,0.0106 -0.0776,0.0106"
         style="fill:none;stroke:#154280;stroke-width:0.264583;stroke-linecap:round;stroke-linejoin:round;stroke-miterlimit:10;stroke-dasharray:none;stroke-opacity:1"
         id="path1-52-0"
         inkscape:export-filename="wave.svg"
         inkscape:export-xdpi="96"
         inkscape:export-ydpi="96" />
      <path
         d="m 33.050431,1.570671 c -0.0247,0 -0.0529,-0.007 -0.0776,-0.0106 -0.0423,-0.007 -0.0882,-0.0212 -0.13053,-0.0353 -0.41628,-0.13758 -0.79022,-0.55032997 -1.07245,-1.13593997 l -0.004,7e-4 c -0.3563,0.72672997 -0.7784,1.18577997 -1.38641,1.18533997 -0.60879,-4.5e-4 -1.03364,-0.45861 -1.38642,-1.18885997 l -3.5e-4,-3.6e-4 C 28.636361,1.112381 28.146001,1.563231 27.606251,1.563231 c -0.54328,0 -1.03364,-0.45861 -1.38642,-1.18885997 -0.28222,0.58561 -0.65616,0.99835997 -1.07244,1.13593997 -0.0423,0.0141 -0.0882,0.0282 -0.13053,0.0353 -0.0247,0.004 -0.0529,0.0106 -0.0776,0.0106"
         style="fill:none;stroke:#154280;stroke-width:0.264583;stroke-linecap:round;stroke-linejoin:round;stroke-miterlimit:10;stroke-dasharray:none;stroke-opacity:1"
         id="path1-2-94"
         inkscape:export-filename="wave.svg"
         inkscape:export-xdpi="96"
         inkscape:export-ydpi="96" />
      <path
         d="m 41.272414,1.5782793 c -0.0247,0 -0.0529,-0.007 -0.0776,-0.0106 -0.0423,-0.007 -0.0882,-0.0212 -0.13053,-0.0353 -0.41628,-0.13758 -0.79022,-0.55033 -1.07245,-1.13594 l -0.004,7e-4 c -0.3563,0.72673 -0.7784,1.18578 -1.38641,1.18534 -0.60879,-4.5e-4 -1.03364,-0.45861 -1.38642,-1.18886 l -3.5e-4,-3.6e-4 c -0.35631,0.72673 -0.84667,1.17758 -1.38642,1.17758 -0.54328,0 -1.03364,-0.45861 -1.38642,-1.18886 -0.28222,0.58561 -0.65616,0.99836 -1.07244,1.13594 -0.0423,0.0141 -0.0882,0.0282 -0.13053,0.0353 -0.0247,0.004 -0.0529,0.0106 -0.0776,0.0106"
         style="fill:none;stroke:#154280;stroke-width:0.264583;stroke-linecap:round;stroke-linejoin:round;stroke-miterlimit:10;stroke-dasharray:none;stroke-opacity:1"
         id="path1-6-7"
         inkscape:export-filename="wave.svg"
         inkscape:export-xdpi="96"
         inkscape:export-ydpi="96" />
      <path
         d="m 49.499926,1.5841734 c -0.0247,0 -0.0529,-0.007 -0.0776,-0.0106 -0.0423,-0.007 -0.0882,-0.0212 -0.13053,-0.0353 -0.41628,-0.13758 -0.79022,-0.55032999 -1.07245,-1.13593996 l -0.004,7e-4 c -0.3563,0.72672996 -0.7784,1.18577996 -1.38641,1.18533996 -0.60879,-4.5e-4 -1.03364,-0.45861 -1.38642,-1.18885996 l -3.5e-4,-3.6e-4 c -0.35631,0.72672996 -0.84667,1.17757996 -1.38642,1.17757996 -0.54328,0 -1.03364,-0.45861 -1.38642,-1.18885996 -0.28222,0.58561 -0.65616,0.99835996 -1.07244,1.13593996 -0.0423,0.0141 -0.0882,0.0282 -0.13053,0.0353 -0.0247,0.004 -0.0529,0.0106 -0.0776,0.0106"
         style="fill:none;stroke:#154280;stroke-width:0.264583;stroke-linecap:round;stroke-linejoin:round;stroke-miterlimit:10;stroke-dasharray:none;stroke-opacity:1"
         id="path1-1-83"
         inkscape:export-filename="wave.svg"
         inkscape:export-xdpi="96"
         inkscape:export-ydpi="96" />
      <path
         d="m 57.669918,1.5860762 c -0.0247,0 -0.0529,-0.007 -0.0776,-0.0106 -0.0423,-0.007 -0.0882,-0.0212 -0.13053,-0.0353 -0.41628,-0.13758 -0.79022,-0.55032996 -1.07245,-1.13593991 l -0.004,7e-4 c -0.3563,0.72672991 -0.7784,1.18577991 -1.38641,1.18533991 -0.60879,-4.5e-4 -1.03364,-0.45861 -1.38642,-1.18885991 l -3.5e-4,-3.6e-4 c -0.35631,0.72672991 -0.84667,1.17757991 -1.38642,1.17757991 -0.54328,0 -1.03364,-0.45861 -1.38642,-1.18885991 -0.28222,0.58560995 -0.65616,0.99835991 -1.07244,1.13593991 -0.0423,0.0141 -0.0882,0.0282 -0.13053,0.0353 -0.0247,0.004 -0.0529,0.0106 -0.0776,0.0106"
         style="fill:none;stroke:#154280;stroke-width:0.264583;stroke-linecap:round;stroke-linejoin:round;stroke-miterlimit:10;stroke-dasharray:none;stroke-opacity:1"
         id="path1-1-7-5"
         inkscape:export-filename="wave.svg"
         inkscape:export-xdpi="96"
         inkscape:export-ydpi="96" />
      <path
         d="m 65.864222,1.5986173 c -0.0247,0 -0.0529,-0.007 -0.0776,-0.0106 -0.0423,-0.007 -0.0882,-0.0212 -0.13053,-0.0353 -0.41628,-0.13758 -0.79022,-0.55033 -1.07245,-1.13594001 l -0.004,7e-4 c -0.3563,0.72673001 -0.7784,1.18578001 -1.38641,1.18534001 -0.60879,-4.5e-4 -1.03364,-0.45861 -1.38642,-1.18886001 l -3.5e-4,-3.6e-4 c -0.35631,0.72673001 -0.84667,1.17758001 -1.38642,1.17758001 -0.54328,0 -1.03364,-0.45861 -1.38642,-1.18886001 -0.28222,0.58561 -0.65616,0.99836001 -1.07244,1.13594001 -0.0423,0.0141 -0.0882,0.0282 -0.13053,0.0353 -0.0247,0.004 -0.0529,0.0106 -0.0776,0.0106"
         style="fill:none;stroke:#154280;stroke-width:0.264583;stroke-linecap:round;stroke-linejoin:round;stroke-miterlimit:10;stroke-dasharray:none;stroke-opacity:1"
         id="path1-1-9-12"
         inkscape:export-filename="wave.svg"
         inkscape:export-xdpi="96"
         inkscape:export-ydpi="96" />
      <path
         d="m 74.059983,1.6142783 c -0.0247,0 -0.0529,-0.007 -0.0776,-0.0106 -0.0423,-0.007 -0.0882,-0.0212 -0.13053,-0.0353 -0.41628,-0.13758 -0.79022,-0.55033 -1.07245,-1.13594002 l -0.004,7e-4 c -0.3563,0.72673002 -0.7784,1.18578002 -1.38641,1.18534002 -0.60879,-4.5e-4 -1.03364,-0.45861 -1.38642,-1.18886002 l -3.5e-4,-3.6e-4 c -0.35631,0.72673002 -0.84667,1.17758002 -1.38642,1.17758002 -0.54328,0 -1.03364,-0.45861 -1.38642,-1.18886002 -0.28222,0.58561002 -0.65616,0.99836002 -1.07244,1.13594002 -0.0423,0.0141 -0.0882,0.0282 -0.13053,0.0353 -0.0247,0.004 -0.0529,0.0106 -0.0776,0.0106"
         style="fill:none;stroke:#154280;stroke-width:0.264583;stroke-linecap:round;stroke-linejoin:round;stroke-miterlimit:10;stroke-dasharray:none;stroke-opacity:1"
         id="path1-1-2-0"
         inkscape:export-filename="wave.svg"
         inkscape:export-xdpi="96"
         inkscape:export-ydpi="96" />
    </g>
    <g
       id="g1-61"
       transform="translate(-0.04468575,14.87809)">
      <path
         d="m 8.4075438,1.4978262 c -0.0247,0 -0.0529,-0.007 -0.0776,-0.0106 -0.0423,-0.007 -0.0882,-0.0212 -0.13053,-0.0353 -0.41628,-0.13758 -0.79022,-0.55033 -1.07245,-1.13594 l -0.004,7e-4 c -0.3563,0.72673 -0.7784,1.18578 -1.38641,1.18534 -0.60879,-4.5e-4 -1.03364,-0.45861 -1.38642,-1.18886 l -3.5e-4,-3.6e-4 c -0.35631,0.72673 -0.84667,1.17758 -1.38642,1.17758 -0.54328,0 -1.03364,-0.45861 -1.38642,-1.18886 -0.28222,0.58561 -0.65616003,0.99836 -1.07244003,1.13594 -0.0423,0.0141 -0.0882,0.0282 -0.13053,0.0353 -0.0247,0.004 -0.0529,0.0106 -0.0776,0.0106"
         style="fill:none;stroke:#154280;stroke-width:0.264583;stroke-linecap:round;stroke-linejoin:round;stroke-miterlimit:10;stroke-dasharray:none;stroke-opacity:1"
         id="path1-8"
         inkscape:export-filename="wave.svg"
         inkscape:export-xdpi="96"
         inkscape:export-ydpi="96" />
      <path
         d="m 16.625497,1.5203052 c -0.0247,0 -0.0529,-0.007 -0.0776,-0.0106 -0.0423,-0.007 -0.0882,-0.0212 -0.13053,-0.0353 -0.41628,-0.13758 -0.79022,-0.55033003 -1.07245,-1.13594003 l -0.004,7e-4 c -0.3563,0.72673003 -0.7784,1.18578003 -1.38641,1.18534003 -0.60879,-4.5e-4 -1.03364,-0.45861 -1.38642,-1.18886003 l -3.5e-4,-3.6e-4 c -0.35631,0.72673003 -0.84667,1.17758003 -1.38642,1.17758003 -0.54328,0 -1.03364,-0.45861 -1.3864201,-1.18886003 -0.28222,0.58561 -0.65616,0.99836003 -1.07244,1.13594003 -0.0423,0.0141 -0.0882,0.0282 -0.13053,0.0353 -0.0247,0.004 -0.0529,0.0106 -0.0776,0.0106"
         style="fill:none;stroke:#154280;stroke-width:0.264583;stroke-linecap:round;stroke-linejoin:round;stroke-miterlimit:10;stroke-dasharray:none;stroke-opacity:1"
         id="path1-5-9"
         inkscape:export-filename="wave.svg"
         inkscape:export-xdpi="96"
         inkscape:export-ydpi="96" />
      <path
         d="m 24.830529,1.5469641 c -0.0247,0 -0.0529,-0.007 -0.0776,-0.0106 -0.0423,-0.007 -0.0882,-0.0212 -0.13053,-0.0353 -0.41628,-0.13758 -0.79022,-0.55032997 -1.07245,-1.13593997 l -0.004,7e-4 c -0.3563,0.72672997 -0.7784,1.18577997 -1.38641,1.18533997 -0.60879,-4.5e-4 -1.03364,-0.45861 -1.38642,-1.18885997 l -3.5e-4,-3.6e-4 c -0.35631,0.72672997 -0.84667,1.17757997 -1.38642,1.17757997 -0.54328,0 -1.03364,-0.45861 -1.38642,-1.18885997 -0.28222,0.58561 -0.65616,0.99835997 -1.07244,1.13593997 -0.0423,0.0141 -0.0882,0.0282 -0.13053,0.0353 -0.0247,0.004 -0.0529,0.0106 -0.0776,0.0106"
         style="fill:none;stroke:#154280;stroke-width:0.264583;stroke-linecap:round;stroke-linejoin:round;stroke-miterlimit:10;stroke-dasharray:none;stroke-opacity:1"
         id="path1-52-8"
         inkscape:export-filename="wave.svg"
         inkscape:export-xdpi="96"
         inkscape:export-ydpi="96" />
      <path
         d="m 33.050431,1.570671 c -0.0247,0 -0.0529,-0.007 -0.0776,-0.0106 -0.0423,-0.007 -0.0882,-0.0212 -0.13053,-0.0353 -0.41628,-0.13758 -0.79022,-0.55032997 -1.07245,-1.13593997 l -0.004,7e-4 c -0.3563,0.72672997 -0.7784,1.18577997 -1.38641,1.18533997 -0.60879,-4.5e-4 -1.03364,-0.45861 -1.38642,-1.18885997 l -3.5e-4,-3.6e-4 C 28.636361,1.112381 28.146001,1.563231 27.606251,1.563231 c -0.54328,0 -1.03364,-0.45861 -1.38642,-1.18885997 -0.28222,0.58561 -0.65616,0.99835997 -1.07244,1.13593997 -0.0423,0.0141 -0.0882,0.0282 -0.13053,0.0353 -0.0247,0.004 -0.0529,0.0106 -0.0776,0.0106"
         style="fill:none;stroke:#154280;stroke-width:0.264583;stroke-linecap:round;stroke-linejoin:round;stroke-miterlimit:10;stroke-dasharray:none;stroke-opacity:1"
         id="path1-2-41"
         inkscape:export-filename="wave.svg"
         inkscape:export-xdpi="96"
         inkscape:export-ydpi="96" />
      <path
         d="m 41.272414,1.5782793 c -0.0247,0 -0.0529,-0.007 -0.0776,-0.0106 -0.0423,-0.007 -0.0882,-0.0212 -0.13053,-0.0353 -0.41628,-0.13758 -0.79022,-0.55033 -1.07245,-1.13594 l -0.004,7e-4 c -0.3563,0.72673 -0.7784,1.18578 -1.38641,1.18534 -0.60879,-4.5e-4 -1.03364,-0.45861 -1.38642,-1.18886 l -3.5e-4,-3.6e-4 c -0.35631,0.72673 -0.84667,1.17758 -1.38642,1.17758 -0.54328,0 -1.03364,-0.45861 -1.38642,-1.18886 -0.28222,0.58561 -0.65616,0.99836 -1.07244,1.13594 -0.0423,0.0141 -0.0882,0.0282 -0.13053,0.0353 -0.0247,0.004 -0.0529,0.0106 -0.0776,0.0106"
         style="fill:none;stroke:#154280;stroke-width:0.264583;stroke-linecap:round;stroke-linejoin:round;stroke-miterlimit:10;stroke-dasharray:none;stroke-opacity:1"
         id="path1-6-4"
         inkscape:export-filename="wave.svg"
         inkscape:export-xdpi="96"
         inkscape:export-ydpi="96" />
      <path
         d="m 49.499926,1.5841734 c -0.0247,0 -0.0529,-0.007 -0.0776,-0.0106 -0.0423,-0.007 -0.0882,-0.0212 -0.13053,-0.0353 -0.41628,-0.13758 -0.79022,-0.55032999 -1.07245,-1.13593996 l -0.004,7e-4 c -0.3563,0.72672996 -0.7784,1.18577996 -1.38641,1.18533996 -0.60879,-4.5e-4 -1.03364,-0.45861 -1.38642,-1.18885996 l -3.5e-4,-3.6e-4 c -0.35631,0.72672996 -0.84667,1.17757996 -1.38642,1.17757996 -0.54328,0 -1.03364,-0.45861 -1.38642,-1.18885996 -0.28222,0.58561 -0.65616,0.99835996 -1.07244,1.13593996 -0.0423,0.0141 -0.0882,0.0282 -0.13053,0.0353 -0.0247,0.004 -0.0529,0.0106 -0.0776,0.0106"
         style="fill:none;stroke:#154280;stroke-width:0.264583;stroke-linecap:round;stroke-linejoin:round;stroke-miterlimit:10;stroke-dasharray:none;stroke-opacity:1"
         id="path1-1-3"
         inkscape:export-filename="wave.svg"
         inkscape:export-xdpi="96"
         inkscape:export-ydpi="96" />
      <path
         d="m 57.669918,1.5860762 c -0.0247,0 -0.0529,-0.007 -0.0776,-0.0106 -0.0423,-0.007 -0.0882,-0.0212 -0.13053,-0.0353 -0.41628,-0.13758 -0.79022,-0.55032996 -1.07245,-1.13593991 l -0.004,7e-4 c -0.3563,0.72672991 -0.7784,1.18577991 -1.38641,1.18533991 -0.60879,-4.5e-4 -1.03364,-0.45861 -1.38642,-1.18885991 l -3.5e-4,-3.6e-4 c -0.35631,0.72672991 -0.84667,1.17757991 -1.38642,1.17757991 -0.54328,0 -1.03364,-0.45861 -1.38642,-1.18885991 -0.28222,0.58560995 -0.65616,0.99835991 -1.07244,1.13593991 -0.0423,0.0141 -0.0882,0.0282 -0.13053,0.0353 -0.0247,0.004 -0.0529,0.0106 -0.0776,0.0106"
         style="fill:none;stroke:#154280;stroke-width:0.264583;stroke-linecap:round;stroke-linejoin:round;stroke-miterlimit:10;stroke-dasharray:none;stroke-opacity:1"
         id="path1-1-7-98"
         inkscape:export-filename="wave.svg"
         inkscape:export-xdpi="96"
         inkscape:export-ydpi="96" />
      <path
         d="m 65.864222,1.5986173 c -0.0247,0 -0.0529,-0.007 -0.0776,-0.0106 -0.0423,-0.007 -0.0882,-0.0212 -0.13053,-0.0353 -0.41628,-0.13758 -0.79022,-0.55033 -1.07245,-1.13594001 l -0.004,7e-4 c -0.3563,0.72673001 -0.7784,1.18578001 -1.38641,1.18534001 -0.60879,-4.5e-4 -1.03364,-0.45861 -1.38642,-1.18886001 l -3.5e-4,-3.6e-4 c -0.35631,0.72673001 -0.84667,1.17758001 -1.38642,1.17758001 -0.54328,0 -1.03364,-0.45861 -1.38642,-1.18886001 -0.28222,0.58561 -0.65616,0.99836001 -1.07244,1.13594001 -0.0423,0.0141 -0.0882,0.0282 -0.13053,0.0353 -0.0247,0.004 -0.0529,0.0106 -0.0776,0.0106"
         style="fill:none;stroke:#154280;stroke-width:0.264583;stroke-linecap:round;stroke-linejoin:round;stroke-miterlimit:10;stroke-dasharray:none;stroke-opacity:1"
         id="path1-1-9-8"
         inkscape:export-filename="wave.svg"
         inkscape:export-xdpi="96"
         inkscape:export-ydpi="96" />
      <path
         d="m 74.059983,1.6142783 c -0.0247,0 -0.0529,-0.007 -0.0776,-0.0106 -0.0423,-0.007 -0.0882,-0.0212 -0.13053,-0.0353 -0.41628,-0.13758 -0.79022,-0.55033 -1.07245,-1.13594002 l -0.004,7e-4 c -0.3563,0.72673002 -0.7784,1.18578002 -1.38641,1.18534002 -0.60879,-4.5e-4 -1.03364,-0.45861 -1.38642,-1.18886002 l -3.5e-4,-3.6e-4 c -0.35631,0.72673002 -0.84667,1.17758002 -1.38642,1.17758002 -0.54328,0 -1.03364,-0.45861 -1.38642,-1.18886002 -0.28222,0.58561002 -0.65616,0.99836002 -1.07244,1.13594002 -0.0423,0.0141 -0.0882,0.0282 -0.13053,0.0353 -0.0247,0.004 -0.0529,0.0106 -0.0776,0.0106"
         style="fill:none;stroke:#154280;stroke-width:0.264583;stroke-linecap:round;stroke-linejoin:round;stroke-miterlimit:10;stroke-dasharray:none;stroke-opacity:1"
         id="path1-1-2-08"
         inkscape:export-filename="wave.svg"
         inkscape:export-xdpi="96"
         inkscape:export-ydpi="96" />
    </g>
    <g
       id="g1-8"
       transform="translate(-0.04001614,17.023995)">
      <path
         d="m 8.4075438,1.4978262 c -0.0247,0 -0.0529,-0.007 -0.0776,-0.0106 -0.0423,-0.007 -0.0882,-0.0212 -0.13053,-0.0353 -0.41628,-0.13758 -0.79022,-0.55033 -1.07245,-1.13594 l -0.004,7e-4 c -0.3563,0.72673 -0.7784,1.18578 -1.38641,1.18534 -0.60879,-4.5e-4 -1.03364,-0.45861 -1.38642,-1.18886 l -3.5e-4,-3.6e-4 c -0.35631,0.72673 -0.84667,1.17758 -1.38642,1.17758 -0.54328,0 -1.03364,-0.45861 -1.38642,-1.18886 -0.28222,0.58561 -0.65616003,0.99836 -1.07244003,1.13594 -0.0423,0.0141 -0.0882,0.0282 -0.13053,0.0353 -0.0247,0.004 -0.0529,0.0106 -0.0776,0.0106"
         style="fill:none;stroke:#154280;stroke-width:0.264583;stroke-linecap:round;stroke-linejoin:round;stroke-miterlimit:10;stroke-dasharray:none;stroke-opacity:1"
         id="path1-3"
         inkscape:export-filename="wave.svg"
         inkscape:export-xdpi="96"
         inkscape:export-ydpi="96" />
      <path
         d="m 16.625497,1.5203052 c -0.0247,0 -0.0529,-0.007 -0.0776,-0.0106 -0.0423,-0.007 -0.0882,-0.0212 -0.13053,-0.0353 -0.41628,-0.13758 -0.79022,-0.55033003 -1.07245,-1.13594003 l -0.004,7e-4 c -0.3563,0.72673003 -0.7784,1.18578003 -1.38641,1.18534003 -0.60879,-4.5e-4 -1.03364,-0.45861 -1.38642,-1.18886003 l -3.5e-4,-3.6e-4 c -0.35631,0.72673003 -0.84667,1.17758003 -1.38642,1.17758003 -0.54328,0 -1.03364,-0.45861 -1.3864201,-1.18886003 -0.28222,0.58561 -0.65616,0.99836003 -1.07244,1.13594003 -0.0423,0.0141 -0.0882,0.0282 -0.13053,0.0353 -0.0247,0.004 -0.0529,0.0106 -0.0776,0.0106"
         style="fill:none;stroke:#154280;stroke-width:0.264583;stroke-linecap:round;stroke-linejoin:round;stroke-miterlimit:10;stroke-dasharray:none;stroke-opacity:1"
         id="path1-5-71"
         inkscape:export-filename="wave.svg"
         inkscape:export-xdpi="96"
         inkscape:export-ydpi="96" />
      <path
         d="m 24.830529,1.5469641 c -0.0247,0 -0.0529,-0.007 -0.0776,-0.0106 -0.0423,-0.007 -0.0882,-0.0212 -0.13053,-0.0353 -0.41628,-0.13758 -0.79022,-0.55032997 -1.07245,-1.13593997 l -0.004,7e-4 c -0.3563,0.72672997 -0.7784,1.18577997 -1.38641,1.18533997 -0.60879,-4.5e-4 -1.03364,-0.45861 -1.38642,-1.18885997 l -3.5e-4,-3.6e-4 c -0.35631,0.72672997 -0.84667,1.17757997 -1.38642,1.17757997 -0.54328,0 -1.03364,-0.45861 -1.38642,-1.18885997 -0.28222,0.58561 -0.65616,0.99835997 -1.07244,1.13593997 -0.0423,0.0141 -0.0882,0.0282 -0.13053,0.0353 -0.0247,0.004 -0.0529,0.0106 -0.0776,0.0106"
         style="fill:none;stroke:#154280;stroke-width:0.264583;stroke-linecap:round;stroke-linejoin:round;stroke-miterlimit:10;stroke-dasharray:none;stroke-opacity:1"
         id="path1-52-07"
         inkscape:export-filename="wave.svg"
         inkscape:export-xdpi="96"
         inkscape:export-ydpi="96" />
      <path
         d="m 33.050431,1.570671 c -0.0247,0 -0.0529,-0.007 -0.0776,-0.0106 -0.0423,-0.007 -0.0882,-0.0212 -0.13053,-0.0353 -0.41628,-0.13758 -0.79022,-0.55032997 -1.07245,-1.13593997 l -0.004,7e-4 c -0.3563,0.72672997 -0.7784,1.18577997 -1.38641,1.18533997 -0.60879,-4.5e-4 -1.03364,-0.45861 -1.38642,-1.18885997 l -3.5e-4,-3.6e-4 C 28.636361,1.112381 28.146001,1.563231 27.606251,1.563231 c -0.54328,0 -1.03364,-0.45861 -1.38642,-1.18885997 -0.28222,0.58561 -0.65616,0.99835997 -1.07244,1.13593997 -0.0423,0.0141 -0.0882,0.0282 -0.13053,0.0353 -0.0247,0.004 -0.0529,0.0106 -0.0776,0.0106"
         style="fill:none;stroke:#154280;stroke-width:0.264583;stroke-linecap:round;stroke-linejoin:round;stroke-miterlimit:10;stroke-dasharray:none;stroke-opacity:1"
         id="path1-2-3"
         inkscape:export-filename="wave.svg"
         inkscape:export-xdpi="96"
         inkscape:export-ydpi="96" />
      <path
         d="m 41.272414,1.5782793 c -0.0247,0 -0.0529,-0.007 -0.0776,-0.0106 -0.0423,-0.007 -0.0882,-0.0212 -0.13053,-0.0353 -0.41628,-0.13758 -0.79022,-0.55033 -1.07245,-1.13594 l -0.004,7e-4 c -0.3563,0.72673 -0.7784,1.18578 -1.38641,1.18534 -0.60879,-4.5e-4 -1.03364,-0.45861 -1.38642,-1.18886 l -3.5e-4,-3.6e-4 c -0.35631,0.72673 -0.84667,1.17758 -1.38642,1.17758 -0.54328,0 -1.03364,-0.45861 -1.38642,-1.18886 -0.28222,0.58561 -0.65616,0.99836 -1.07244,1.13594 -0.0423,0.0141 -0.0882,0.0282 -0.13053,0.0353 -0.0247,0.004 -0.0529,0.0106 -0.0776,0.0106"
         style="fill:none;stroke:#154280;stroke-width:0.264583;stroke-linecap:round;stroke-linejoin:round;stroke-miterlimit:10;stroke-dasharray:none;stroke-opacity:1"
         id="path1-6-49"
         inkscape:export-filename="wave.svg"
         inkscape:export-xdpi="96"
         inkscape:export-ydpi="96" />
      <path
         d="m 49.499926,1.5841734 c -0.0247,0 -0.0529,-0.007 -0.0776,-0.0106 -0.0423,-0.007 -0.0882,-0.0212 -0.13053,-0.0353 -0.41628,-0.13758 -0.79022,-0.55032999 -1.07245,-1.13593996 l -0.004,7e-4 c -0.3563,0.72672996 -0.7784,1.18577996 -1.38641,1.18533996 -0.60879,-4.5e-4 -1.03364,-0.45861 -1.38642,-1.18885996 l -3.5e-4,-3.6e-4 c -0.35631,0.72672996 -0.84667,1.17757996 -1.38642,1.17757996 -0.54328,0 -1.03364,-0.45861 -1.38642,-1.18885996 -0.28222,0.58561 -0.65616,0.99835996 -1.07244,1.13593996 -0.0423,0.0141 -0.0882,0.0282 -0.13053,0.0353 -0.0247,0.004 -0.0529,0.0106 -0.0776,0.0106"
         style="fill:none;stroke:#154280;stroke-width:0.264583;stroke-linecap:round;stroke-linejoin:round;stroke-miterlimit:10;stroke-dasharray:none;stroke-opacity:1"
         id="path1-1-6"
         inkscape:export-filename="wave.svg"
         inkscape:export-xdpi="96"
         inkscape:export-ydpi="96" />
      <path
         d="m 57.669918,1.5860762 c -0.0247,0 -0.0529,-0.007 -0.0776,-0.0106 -0.0423,-0.007 -0.0882,-0.0212 -0.13053,-0.0353 -0.41628,-0.13758 -0.79022,-0.55032996 -1.07245,-1.13593991 l -0.004,7e-4 c -0.3563,0.72672991 -0.7784,1.18577991 -1.38641,1.18533991 -0.60879,-4.5e-4 -1.03364,-0.45861 -1.38642,-1.18885991 l -3.5e-4,-3.6e-4 c -0.35631,0.72672991 -0.84667,1.17757991 -1.38642,1.17757991 -0.54328,0 -1.03364,-0.45861 -1.38642,-1.18885991 -0.28222,0.58560995 -0.65616,0.99835991 -1.07244,1.13593991 -0.0423,0.0141 -0.0882,0.0282 -0.13053,0.0353 -0.0247,0.004 -0.0529,0.0106 -0.0776,0.0106"
         style="fill:none;stroke:#154280;stroke-width:0.264583;stroke-linecap:round;stroke-linejoin:round;stroke-miterlimit:10;stroke-dasharray:none;stroke-opacity:1"
         id="path1-1-7-51"
         inkscape:export-filename="wave.svg"
         inkscape:export-xdpi="96"
         inkscape:export-ydpi="96" />
      <path
         d="m 65.864222,1.5986173 c -0.0247,0 -0.0529,-0.007 -0.0776,-0.0106 -0.0423,-0.007 -0.0882,-0.0212 -0.13053,-0.0353 -0.41628,-0.13758 -0.79022,-0.55033 -1.07245,-1.13594001 l -0.004,7e-4 c -0.3563,0.72673001 -0.7784,1.18578001 -1.38641,1.18534001 -0.60879,-4.5e-4 -1.03364,-0.45861 -1.38642,-1.18886001 l -3.5e-4,-3.6e-4 c -0.35631,0.72673001 -0.84667,1.17758001 -1.38642,1.17758001 -0.54328,0 -1.03364,-0.45861 -1.38642,-1.18886001 -0.28222,0.58561 -0.65616,0.99836001 -1.07244,1.13594001 -0.0423,0.0141 -0.0882,0.0282 -0.13053,0.0353 -0.0247,0.004 -0.0529,0.0106 -0.0776,0.0106"
         style="fill:none;stroke:#154280;stroke-width:0.264583;stroke-linecap:round;stroke-linejoin:round;stroke-miterlimit:10;stroke-dasharray:none;stroke-opacity:1"
         id="path1-1-9-0"
         inkscape:export-filename="wave.svg"
         inkscape:export-xdpi="96"
         inkscape:export-ydpi="96" />
      <path
         d="m 74.059983,1.6142783 c -0.0247,0 -0.0529,-0.007 -0.0776,-0.0106 -0.0423,-0.007 -0.0882,-0.0212 -0.13053,-0.0353 -0.41628,-0.13758 -0.79022,-0.55033 -1.07245,-1.13594002 l -0.004,7e-4 c -0.3563,0.72673002 -0.7784,1.18578002 -1.38641,1.18534002 -0.60879,-4.5e-4 -1.03364,-0.45861 -1.38642,-1.18886002 l -3.5e-4,-3.6e-4 c -0.35631,0.72673002 -0.84667,1.17758002 -1.38642,1.17758002 -0.54328,0 -1.03364,-0.45861 -1.38642,-1.18886002 -0.28222,0.58561002 -0.65616,0.99836002 -1.07244,1.13594002 -0.0423,0.0141 -0.0882,0.0282 -0.13053,0.0353 -0.0247,0.004 -0.0529,0.0106 -0.0776,0.0106"
         style="fill:none;stroke:#154280;stroke-width:0.264583;stroke-linecap:round;stroke-linejoin:round;stroke-miterlimit:10;stroke-dasharray:none;stroke-opacity:1"
         id="path1-1-2-9"
         inkscape:export-filename="wave.svg"
         inkscape:export-xdpi="96"
         inkscape:export-ydpi="96" />
    </g>
    <g
       id="g1-48"
       transform="translate(-0.02478629,19.310417)">
      <path
         d="m 8.4075438,1.4978262 c -0.0247,0 -0.0529,-0.007 -0.0776,-0.0106 -0.0423,-0.007 -0.0882,-0.0212 -0.13053,-0.0353 -0.41628,-0.13758 -0.79022,-0.55033 -1.07245,-1.13594 l -0.004,7e-4 c -0.3563,0.72673 -0.7784,1.18578 -1.38641,1.18534 -0.60879,-4.5e-4 -1.03364,-0.45861 -1.38642,-1.18886 l -3.5e-4,-3.6e-4 c -0.35631,0.72673 -0.84667,1.17758 -1.38642,1.17758 -0.54328,0 -1.03364,-0.45861 -1.38642,-1.18886 -0.28222,0.58561 -0.65616003,0.99836 -1.07244003,1.13594 -0.0423,0.0141 -0.0882,0.0282 -0.13053,0.0353 -0.0247,0.004 -0.0529,0.0106 -0.0776,0.0106"
         style="fill:none;stroke:#154280;stroke-width:0.264583;stroke-linecap:round;stroke-linejoin:round;stroke-miterlimit:10;stroke-dasharray:none;stroke-opacity:1"
         id="path1-4"
         inkscape:export-filename="wave.svg"
         inkscape:export-xdpi="96"
         inkscape:export-ydpi="96" />
      <path
         d="m 16.625497,1.5203052 c -0.0247,0 -0.0529,-0.007 -0.0776,-0.0106 -0.0423,-0.007 -0.0882,-0.0212 -0.13053,-0.0353 -0.41628,-0.13758 -0.79022,-0.55033003 -1.07245,-1.13594003 l -0.004,7e-4 c -0.3563,0.72673003 -0.7784,1.18578003 -1.38641,1.18534003 -0.60879,-4.5e-4 -1.03364,-0.45861 -1.38642,-1.18886003 l -3.5e-4,-3.6e-4 c -0.35631,0.72673003 -0.84667,1.17758003 -1.38642,1.17758003 -0.54328,0 -1.03364,-0.45861 -1.3864201,-1.18886003 -0.28222,0.58561 -0.65616,0.99836003 -1.07244,1.13594003 -0.0423,0.0141 -0.0882,0.0282 -0.13053,0.0353 -0.0247,0.004 -0.0529,0.0106 -0.0776,0.0106"
         style="fill:none;stroke:#154280;stroke-width:0.264583;stroke-linecap:round;stroke-linejoin:round;stroke-miterlimit:10;stroke-dasharray:none;stroke-opacity:1"
         id="path1-5-99"
         inkscape:export-filename="wave.svg"
         inkscape:export-xdpi="96"
         inkscape:export-ydpi="96" />
      <path
         d="m 24.830529,1.5469641 c -0.0247,0 -0.0529,-0.007 -0.0776,-0.0106 -0.0423,-0.007 -0.0882,-0.0212 -0.13053,-0.0353 -0.41628,-0.13758 -0.79022,-0.55032997 -1.07245,-1.13593997 l -0.004,7e-4 c -0.3563,0.72672997 -0.7784,1.18577997 -1.38641,1.18533997 -0.60879,-4.5e-4 -1.03364,-0.45861 -1.38642,-1.18885997 l -3.5e-4,-3.6e-4 c -0.35631,0.72672997 -0.84667,1.17757997 -1.38642,1.17757997 -0.54328,0 -1.03364,-0.45861 -1.38642,-1.18885997 -0.28222,0.58561 -0.65616,0.99835997 -1.07244,1.13593997 -0.0423,0.0141 -0.0882,0.0282 -0.13053,0.0353 -0.0247,0.004 -0.0529,0.0106 -0.0776,0.0106"
         style="fill:none;stroke:#154280;stroke-width:0.264583;stroke-linecap:round;stroke-linejoin:round;stroke-miterlimit:10;stroke-dasharray:none;stroke-opacity:1"
         id="path1-52-2"
         inkscape:export-filename="wave.svg"
         inkscape:export-xdpi="96"
         inkscape:export-ydpi="96" />
      <path
         d="m 33.050431,1.570671 c -0.0247,0 -0.0529,-0.007 -0.0776,-0.0106 -0.0423,-0.007 -0.0882,-0.0212 -0.13053,-0.0353 -0.41628,-0.13758 -0.79022,-0.55032997 -1.07245,-1.13593997 l -0.004,7e-4 c -0.3563,0.72672997 -0.7784,1.18577997 -1.38641,1.18533997 -0.60879,-4.5e-4 -1.03364,-0.45861 -1.38642,-1.18885997 l -3.5e-4,-3.6e-4 C 28.636361,1.112381 28.146001,1.563231 27.606251,1.563231 c -0.54328,0 -1.03364,-0.45861 -1.38642,-1.18885997 -0.28222,0.58561 -0.65616,0.99835997 -1.07244,1.13593997 -0.0423,0.0141 -0.0882,0.0282 -0.13053,0.0353 -0.0247,0.004 -0.0529,0.0106 -0.0776,0.0106"
         style="fill:none;stroke:#154280;stroke-width:0.264583;stroke-linecap:round;stroke-linejoin:round;stroke-miterlimit:10;stroke-dasharray:none;stroke-opacity:1"
         id="path1-2-5"
         inkscape:export-filename="wave.svg"
         inkscape:export-xdpi="96"
         inkscape:export-ydpi="96" />
      <path
         d="m 41.272414,1.5782793 c -0.0247,0 -0.0529,-0.007 -0.0776,-0.0106 -0.0423,-0.007 -0.0882,-0.0212 -0.13053,-0.0353 -0.41628,-0.13758 -0.79022,-0.55033 -1.07245,-1.13594 l -0.004,7e-4 c -0.3563,0.72673 -0.7784,1.18578 -1.38641,1.18534 -0.60879,-4.5e-4 -1.03364,-0.45861 -1.38642,-1.18886 l -3.5e-4,-3.6e-4 c -0.35631,0.72673 -0.84667,1.17758 -1.38642,1.17758 -0.54328,0 -1.03364,-0.45861 -1.38642,-1.18886 -0.28222,0.58561 -0.65616,0.99836 -1.07244,1.13594 -0.0423,0.0141 -0.0882,0.0282 -0.13053,0.0353 -0.0247,0.004 -0.0529,0.0106 -0.0776,0.0106"
         style="fill:none;stroke:#154280;stroke-width:0.264583;stroke-linecap:round;stroke-linejoin:round;stroke-miterlimit:10;stroke-dasharray:none;stroke-opacity:1"
         id="path1-6-53"
         inkscape:export-filename="wave.svg"
         inkscape:export-xdpi="96"
         inkscape:export-ydpi="96" />
      <path
         d="m 49.499926,1.5841734 c -0.0247,0 -0.0529,-0.007 -0.0776,-0.0106 -0.0423,-0.007 -0.0882,-0.0212 -0.13053,-0.0353 -0.41628,-0.13758 -0.79022,-0.55032999 -1.07245,-1.13593996 l -0.004,7e-4 c -0.3563,0.72672996 -0.7784,1.18577996 -1.38641,1.18533996 -0.60879,-4.5e-4 -1.03364,-0.45861 -1.38642,-1.18885996 l -3.5e-4,-3.6e-4 c -0.35631,0.72672996 -0.84667,1.17757996 -1.38642,1.17757996 -0.54328,0 -1.03364,-0.45861 -1.38642,-1.18885996 -0.28222,0.58561 -0.65616,0.99835996 -1.07244,1.13593996 -0.0423,0.0141 -0.0882,0.0282 -0.13053,0.0353 -0.0247,0.004 -0.0529,0.0106 -0.0776,0.0106"
         style="fill:none;stroke:#154280;stroke-width:0.264583;stroke-linecap:round;stroke-linejoin:round;stroke-miterlimit:10;stroke-dasharray:none;stroke-opacity:1"
         id="path1-1-33"
         inkscape:export-filename="wave.svg"
         inkscape:export-xdpi="96"
         inkscape:export-ydpi="96" />
      <path
         d="m 57.669918,1.5860762 c -0.0247,0 -0.0529,-0.007 -0.0776,-0.0106 -0.0423,-0.007 -0.0882,-0.0212 -0.13053,-0.0353 -0.41628,-0.13758 -0.79022,-0.55032996 -1.07245,-1.13593991 l -0.004,7e-4 c -0.3563,0.72672991 -0.7784,1.18577991 -1.38641,1.18533991 -0.60879,-4.5e-4 -1.03364,-0.45861 -1.38642,-1.18885991 l -3.5e-4,-3.6e-4 c -0.35631,0.72672991 -0.84667,1.17757991 -1.38642,1.17757991 -0.54328,0 -1.03364,-0.45861 -1.38642,-1.18885991 -0.28222,0.58560995 -0.65616,0.99835991 -1.07244,1.13593991 -0.0423,0.0141 -0.0882,0.0282 -0.13053,0.0353 -0.0247,0.004 -0.0529,0.0106 -0.0776,0.0106"
         style="fill:none;stroke:#154280;stroke-width:0.264583;stroke-linecap:round;stroke-linejoin:round;stroke-miterlimit:10;stroke-dasharray:none;stroke-opacity:1"
         id="path1-1-7-7"
         inkscape:export-filename="wave.svg"
         inkscape:export-xdpi="96"
         inkscape:export-ydpi="96" />
      <path
         d="m 65.864222,1.5986173 c -0.0247,0 -0.0529,-0.007 -0.0776,-0.0106 -0.0423,-0.007 -0.0882,-0.0212 -0.13053,-0.0353 -0.41628,-0.13758 -0.79022,-0.55033 -1.07245,-1.13594001 l -0.004,7e-4 c -0.3563,0.72673001 -0.7784,1.18578001 -1.38641,1.18534001 -0.60879,-4.5e-4 -1.03364,-0.45861 -1.38642,-1.18886001 l -3.5e-4,-3.6e-4 c -0.35631,0.72673001 -0.84667,1.17758001 -1.38642,1.17758001 -0.54328,0 -1.03364,-0.45861 -1.38642,-1.18886001 -0.28222,0.58561 -0.65616,0.99836001 -1.07244,1.13594001 -0.0423,0.0141 -0.0882,0.0282 -0.13053,0.0353 -0.0247,0.004 -0.0529,0.0106 -0.0776,0.0106"
         style="fill:none;stroke:#154280;stroke-width:0.264583;stroke-linecap:round;stroke-linejoin:round;stroke-miterlimit:10;stroke-dasharray:none;stroke-opacity:1"
         id="path1-1-9-4"
         inkscape:export-filename="wave.svg"
         inkscape:export-xdpi="96"
         inkscape:export-ydpi="96" />
      <path
         d="m 74.059983,1.6142783 c -0.0247,0 -0.0529,-0.007 -0.0776,-0.0106 -0.0423,-0.007 -0.0882,-0.0212 -0.13053,-0.0353 -0.41628,-0.13758 -0.79022,-0.55033 -1.07245,-1.13594002 l -0.004,7e-4 c -0.3563,0.72673002 -0.7784,1.18578002 -1.38641,1.18534002 -0.60879,-4.5e-4 -1.03364,-0.45861 -1.38642,-1.18886002 l -3.5e-4,-3.6e-4 c -0.35631,0.72673002 -0.84667,1.17758002 -1.38642,1.17758002 -0.54328,0 -1.03364,-0.45861 -1.38642,-1.18886002 -0.28222,0.58561002 -0.65616,0.99836002 -1.07244,1.13594002 -0.0423,0.0141 -0.0882,0.0282 -0.13053,0.0353 -0.0247,0.004 -0.0529,0.0106 -0.0776,0.0106"
         style="fill:none;stroke:#154280;stroke-width:0.264583;stroke-linecap:round;stroke-linejoin:round;stroke-miterlimit:10;stroke-dasharray:none;stroke-opacity:1"
         id="path1-1-2-38"
         inkscape:export-filename="wave.svg"
         inkscape:export-xdpi="96"
         inkscape:export-ydpi="96" />
    </g>
    <g
       id="g1-68"
       transform="translate(0.18943785,21.312357)">
      <path
         d="m 8.4075438,1.4978262 c -0.0247,0 -0.0529,-0.007 -0.0776,-0.0106 -0.0423,-0.007 -0.0882,-0.0212 -0.13053,-0.0353 -0.41628,-0.13758 -0.79022,-0.55033 -1.07245,-1.13594 l -0.004,7e-4 c -0.3563,0.72673 -0.7784,1.18578 -1.38641,1.18534 -0.60879,-4.5e-4 -1.03364,-0.45861 -1.38642,-1.18886 l -3.5e-4,-3.6e-4 c -0.35631,0.72673 -0.84667,1.17758 -1.38642,1.17758 -0.54328,0 -1.03364,-0.45861 -1.38642,-1.18886 -0.28222,0.58561 -0.65616003,0.99836 -1.07244003,1.13594 -0.0423,0.0141 -0.0882,0.0282 -0.13053,0.0353 -0.0247,0.004 -0.0529,0.0106 -0.0776,0.0106"
         style="fill:none;stroke:#154280;stroke-width:0.264583;stroke-linecap:round;stroke-linejoin:round;stroke-miterlimit:10;stroke-dasharray:none;stroke-opacity:1"
         id="path1-19"
         inkscape:export-filename="wave.svg"
         inkscape:export-xdpi="96"
         inkscape:export-ydpi="96" />
      <path
         d="m 16.625497,1.5203052 c -0.0247,0 -0.0529,-0.007 -0.0776,-0.0106 -0.0423,-0.007 -0.0882,-0.0212 -0.13053,-0.0353 -0.41628,-0.13758 -0.79022,-0.55033003 -1.07245,-1.13594003 l -0.004,7e-4 c -0.3563,0.72673003 -0.7784,1.18578003 -1.38641,1.18534003 -0.60879,-4.5e-4 -1.03364,-0.45861 -1.38642,-1.18886003 l -3.5e-4,-3.6e-4 c -0.35631,0.72673003 -0.84667,1.17758003 -1.38642,1.17758003 -0.54328,0 -1.03364,-0.45861 -1.3864201,-1.18886003 -0.28222,0.58561 -0.65616,0.99836003 -1.07244,1.13594003 -0.0423,0.0141 -0.0882,0.0282 -0.13053,0.0353 -0.0247,0.004 -0.0529,0.0106 -0.0776,0.0106"
         style="fill:none;stroke:#154280;stroke-width:0.264583;stroke-linecap:round;stroke-linejoin:round;stroke-miterlimit:10;stroke-dasharray:none;stroke-opacity:1"
         id="path1-5-8"
         inkscape:export-filename="wave.svg"
         inkscape:export-xdpi="96"
         inkscape:export-ydpi="96" />
      <path
         d="m 24.830529,1.5469641 c -0.0247,0 -0.0529,-0.007 -0.0776,-0.0106 -0.0423,-0.007 -0.0882,-0.0212 -0.13053,-0.0353 -0.41628,-0.13758 -0.79022,-0.55032997 -1.07245,-1.13593997 l -0.004,7e-4 c -0.3563,0.72672997 -0.7784,1.18577997 -1.38641,1.18533997 -0.60879,-4.5e-4 -1.03364,-0.45861 -1.38642,-1.18885997 l -3.5e-4,-3.6e-4 c -0.35631,0.72672997 -0.84667,1.17757997 -1.38642,1.17757997 -0.54328,0 -1.03364,-0.45861 -1.38642,-1.18885997 -0.28222,0.58561 -0.65616,0.99835997 -1.07244,1.13593997 -0.0423,0.0141 -0.0882,0.0282 -0.13053,0.0353 -0.0247,0.004 -0.0529,0.0106 -0.0776,0.0106"
         style="fill:none;stroke:#154280;stroke-width:0.264583;stroke-linecap:round;stroke-linejoin:round;stroke-miterlimit:10;stroke-dasharray:none;stroke-opacity:1"
         id="path1-52-97"
         inkscape:export-filename="wave.svg"
         inkscape:export-xdpi="96"
         inkscape:export-ydpi="96" />
      <path
         d="m 33.050431,1.570671 c -0.0247,0 -0.0529,-0.007 -0.0776,-0.0106 -0.0423,-0.007 -0.0882,-0.0212 -0.13053,-0.0353 -0.41628,-0.13758 -0.79022,-0.55032997 -1.07245,-1.13593997 l -0.004,7e-4 c -0.3563,0.72672997 -0.7784,1.18577997 -1.38641,1.18533997 -0.60879,-4.5e-4 -1.03364,-0.45861 -1.38642,-1.18885997 l -3.5e-4,-3.6e-4 C 28.636361,1.112381 28.146001,1.563231 27.606251,1.563231 c -0.54328,0 -1.03364,-0.45861 -1.38642,-1.18885997 -0.28222,0.58561 -0.65616,0.99835997 -1.07244,1.13593997 -0.0423,0.0141 -0.0882,0.0282 -0.13053,0.0353 -0.0247,0.004 -0.0529,0.0106 -0.0776,0.0106"
         style="fill:none;stroke:#154280;stroke-width:0.264583;stroke-linecap:round;stroke-linejoin:round;stroke-miterlimit:10;stroke-dasharray:none;stroke-opacity:1"
         id="path1-2-2"
         inkscape:export-filename="wave.svg"
         inkscape:export-xdpi="96"
         inkscape:export-ydpi="96" />
      <path
         d="m 41.272414,1.5782793 c -0.0247,0 -0.0529,-0.007 -0.0776,-0.0106 -0.0423,-0.007 -0.0882,-0.0212 -0.13053,-0.0353 -0.41628,-0.13758 -0.79022,-0.55033 -1.07245,-1.13594 l -0.004,7e-4 c -0.3563,0.72673 -0.7784,1.18578 -1.38641,1.18534 -0.60879,-4.5e-4 -1.03364,-0.45861 -1.38642,-1.18886 l -3.5e-4,-3.6e-4 c -0.35631,0.72673 -0.84667,1.17758 -1.38642,1.17758 -0.54328,0 -1.03364,-0.45861 -1.38642,-1.18886 -0.28222,0.58561 -0.65616,0.99836 -1.07244,1.13594 -0.0423,0.0141 -0.0882,0.0282 -0.13053,0.0353 -0.0247,0.004 -0.0529,0.0106 -0.0776,0.0106"
         style="fill:none;stroke:#154280;stroke-width:0.264583;stroke-linecap:round;stroke-linejoin:round;stroke-miterlimit:10;stroke-dasharray:none;stroke-opacity:1"
         id="path1-6-2"
         inkscape:export-filename="wave.svg"
         inkscape:export-xdpi="96"
         inkscape:export-ydpi="96" />
      <path
         d="m 49.499926,1.5841734 c -0.0247,0 -0.0529,-0.007 -0.0776,-0.0106 -0.0423,-0.007 -0.0882,-0.0212 -0.13053,-0.0353 -0.41628,-0.13758 -0.79022,-0.55032999 -1.07245,-1.13593996 l -0.004,7e-4 c -0.3563,0.72672996 -0.7784,1.18577996 -1.38641,1.18533996 -0.60879,-4.5e-4 -1.03364,-0.45861 -1.38642,-1.18885996 l -3.5e-4,-3.6e-4 c -0.35631,0.72672996 -0.84667,1.17757996 -1.38642,1.17757996 -0.54328,0 -1.03364,-0.45861 -1.38642,-1.18885996 -0.28222,0.58561 -0.65616,0.99835996 -1.07244,1.13593996 -0.0423,0.0141 -0.0882,0.0282 -0.13053,0.0353 -0.0247,0.004 -0.0529,0.0106 -0.0776,0.0106"
         style="fill:none;stroke:#154280;stroke-width:0.264583;stroke-linecap:round;stroke-linejoin:round;stroke-miterlimit:10;stroke-dasharray:none;stroke-opacity:1"
         id="path1-1-82"
         inkscape:export-filename="wave.svg"
         inkscape:export-xdpi="96"
         inkscape:export-ydpi="96" />
      <path
         d="m 57.669918,1.5860762 c -0.0247,0 -0.0529,-0.007 -0.0776,-0.0106 -0.0423,-0.007 -0.0882,-0.0212 -0.13053,-0.0353 -0.41628,-0.13758 -0.79022,-0.55032996 -1.07245,-1.13593991 l -0.004,7e-4 c -0.3563,0.72672991 -0.7784,1.18577991 -1.38641,1.18533991 -0.60879,-4.5e-4 -1.03364,-0.45861 -1.38642,-1.18885991 l -3.5e-4,-3.6e-4 c -0.35631,0.72672991 -0.84667,1.17757991 -1.38642,1.17757991 -0.54328,0 -1.03364,-0.45861 -1.38642,-1.18885991 -0.28222,0.58560995 -0.65616,0.99835991 -1.07244,1.13593991 -0.0423,0.0141 -0.0882,0.0282 -0.13053,0.0353 -0.0247,0.004 -0.0529,0.0106 -0.0776,0.0106"
         style="fill:none;stroke:#154280;stroke-width:0.264583;stroke-linecap:round;stroke-linejoin:round;stroke-miterlimit:10;stroke-dasharray:none;stroke-opacity:1"
         id="path1-1-7-89"
         inkscape:export-filename="wave.svg"
         inkscape:export-xdpi="96"
         inkscape:export-ydpi="96" />
      <path
         d="m 65.864222,1.5986173 c -0.0247,0 -0.0529,-0.007 -0.0776,-0.0106 -0.0423,-0.007 -0.0882,-0.0212 -0.13053,-0.0353 -0.41628,-0.13758 -0.79022,-0.55033 -1.07245,-1.13594001 l -0.004,7e-4 c -0.3563,0.72673001 -0.7784,1.18578001 -1.38641,1.18534001 -0.60879,-4.5e-4 -1.03364,-0.45861 -1.38642,-1.18886001 l -3.5e-4,-3.6e-4 c -0.35631,0.72673001 -0.84667,1.17758001 -1.38642,1.17758001 -0.54328,0 -1.03364,-0.45861 -1.38642,-1.18886001 -0.28222,0.58561 -0.65616,0.99836001 -1.07244,1.13594001 -0.0423,0.0141 -0.0882,0.0282 -0.13053,0.0353 -0.0247,0.004 -0.0529,0.0106 -0.0776,0.0106"
         style="fill:none;stroke:#154280;stroke-width:0.264583;stroke-linecap:round;stroke-linejoin:round;stroke-miterlimit:10;stroke-dasharray:none;stroke-opacity:1"
         id="path1-1-9-07"
         inkscape:export-filename="wave.svg"
         inkscape:export-xdpi="96"
         inkscape:export-ydpi="96" />
      <path
         d="m 74.059983,1.6142783 c -0.0247,0 -0.0529,-0.007 -0.0776,-0.0106 -0.0423,-0.007 -0.0882,-0.0212 -0.13053,-0.0353 -0.41628,-0.13758 -0.79022,-0.55033 -1.07245,-1.13594002 l -0.004,7e-4 c -0.3563,0.72673002 -0.7784,1.18578002 -1.38641,1.18534002 -0.60879,-4.5e-4 -1.03364,-0.45861 -1.38642,-1.18886002 l -3.5e-4,-3.6e-4 c -0.35631,0.72673002 -0.84667,1.17758002 -1.38642,1.17758002 -0.54328,0 -1.03364,-0.45861 -1.38642,-1.18886002 -0.28222,0.58561002 -0.65616,0.99836002 -1.07244,1.13594002 -0.0423,0.0141 -0.0882,0.0282 -0.13053,0.0353 -0.0247,0.004 -0.0529,0.0106 -0.0776,0.0106"
         style="fill:none;stroke:#154280;stroke-width:0.264583;stroke-linecap:round;stroke-linejoin:round;stroke-miterlimit:10;stroke-dasharray:none;stroke-opacity:1"
         id="path1-1-2-8"
         inkscape:export-filename="wave.svg"
         inkscape:export-xdpi="96"
         inkscape:export-ydpi="96" />
    </g>
  </g>
</svg>
