<?xml version="1.0" encoding="UTF-8" standalone="no"?>
<!-- Created with Inkscape (http://www.inkscape.org/) -->

<svg
   width="8.3757524mm"
   height="1.4650661mm"
   viewBox="0 0 8.3757524 1.4650661"
   version="1.1"
   id="svg1"
   xmlns:inkscape="http://www.inkscape.org/namespaces/inkscape"
   xmlns:sodipodi="http://sodipodi.sourceforge.net/DTD/sodipodi-0.dtd"
   xmlns="http://www.w3.org/2000/svg"
   xmlns:svg="http://www.w3.org/2000/svg">
  <sodipodi:namedview
     id="namedview1"
     pagecolor="#ffffff"
     bordercolor="#000000"
     borderopacity="0.25"
     inkscape:showpageshadow="2"
     inkscape:pageopacity="0.0"
     inkscape:pagecheckerboard="0"
     inkscape:deskcolor="#d1d1d1"
     inkscape:document-units="mm">
    <inkscape:page
       x="0"
       y="0"
       width="8.3757524"
       height="1.4650661"
       id="page2"
       margin="0"
       bleed="0" />
  </sodipodi:namedview>
  <defs
     id="defs1" />
  <g
     inkscape:label="Layer 1"
     inkscape:groupmode="layer"
     id="layer1"
     transform="translate(-163.96343,-133.26415)">
    <path
       d="m 172.20689,134.59272 c -0.0247,0 -0.0529,-0.007 -0.0776,-0.0106 -0.0423,-0.007 -0.0882,-0.0212 -0.13053,-0.0353 -0.41628,-0.13758 -0.79022,-0.55033 -1.07245,-1.13594 l -0.004,7e-4 c -0.3563,0.72673 -0.7784,1.18578 -1.38641,1.18534 -0.60879,-4.5e-4 -1.03364,-0.45861 -1.38642,-1.18886 l -3.5e-4,-3.6e-4 c -0.35631,0.72673 -0.84667,1.17758 -1.38642,1.17758 -0.54328,0 -1.03364,-0.45861 -1.38642,-1.18886 -0.28222,0.58561 -0.65616,0.99836 -1.07244,1.13594 -0.0423,0.0141 -0.0882,0.0282 -0.13053,0.0353 -0.0247,0.004 -0.0529,0.0106 -0.0776,0.0106"
       style="fill:none;stroke:#154280;stroke-width:0.264583;stroke-linecap:round;stroke-linejoin:round;stroke-miterlimit:10;stroke-dasharray:none;stroke-opacity:1"
       id="path1"
       inkscape:export-filename="wave.svg"
       inkscape:export-xdpi="96"
       inkscape:export-ydpi="96" />
  </g>
</svg>
